<?xml version="1.0"?><svg width="640" height="480" xmlns="http://www.w3.org/2000/svg">
 <title>green and blue nautilus shell</title>
 <g>
  <title>Layer 1</title>
  <path stroke-width="0" d="m284.027008,189.669006c0,0 14.855988,-33.048996 20.313995,-42.751999s9.703003,-25.771996 3.032013,-44.570999s-17.587006,-35.476997 -24.863007,-41.842999c0,0 -44.570999,0.606998 -87.322998,32.746998s-60.035004,69.737007 -63.977005,81.258995s-16.07,46.69902 -9.702995,82.779999s16.676003,54.274017 44.267998,59.731018s43.662003,-9.097015 48.210007,-16.070007s10.612,-15.161011 3.334991,-30.623993s-8.10199,-27.894012 -2.080002,-43.964005s17.847,-23.953003 27.853012,-30.018005c10.005981,-6.064011 27.895996,-9.409012 40.93399,-6.675003z" stroke="#231F20" fill="#02023a"/>
  <path stroke-width="0" d="m143.645004,312.527008c0,0 20.082001,12.13501 45.318008,8.806c0,0 2.684998,3.759003 4.940002,3.437012c0,0 2.041,-1.985016 1.825989,-5.34201c0,0 29.854004,-9.588013 29.103012,-38.902008c0,0 5.798996,6.338013 12.241989,10.526001s8.162003,11.705017 7.410004,18.686005s-1.612,20.830017 -15.25,29.744019s-27.422012,10.819977 -35.867004,10.819977c-15.786011,0 -34.688004,-16.514008 -49.722,-37.774994z" stroke="#231F20" fill="#02023a"/>
  <path stroke-width="0" d="m193.542007,354.582001c0,0 23.001007,0.501007 41.615005,-14.220001c0,0 2.802002,1.304993 4.453995,-0.029999c0,0 0.686996,-2.561005 -1.085999,-5.139008c0,0 19.888016,-20.312988 5.306,-43.360992c0,0 7.246002,0.684998 14.28801,1.976013c5.023987,0.92099 12.011993,6.306976 14.811981,10.338989c3.725006,5.36499 8.64502,17.403992 1.977997,31.042999c-6.664978,13.639984 -16.789001,21.75 -23.549988,25.786987c-12.637009,7.546021 -35.644012,3.39502 -57.817001,-6.394989z" stroke="#231F20" fill="#02023a"/>
  <path stroke-width="0" d="m254.128998,362.298004c0,0 17.903015,-8.826996 25.295013,-28.809998c0,0 3.78299,-0.554993 4.425995,-2.348999c0,0 -0.652008,-2.270996 -3.182007,-3.395996c0,0 5.795013,-24.838013 -15.859009,-35.488007c0,0 5.820007,-2.89798 11.765015,-5.238983c4.240997,-1.671021 12.020996,-0.872009 15.997009,0.875c5.292999,2.322998 14.554993,9.159973 15.743988,22.679993c1.19101,13.520996 -2.781006,24.467987 -6.067017,30.729004c-6.141998,11.702972 -26.777985,17.980988 -48.118988,20.997986z" stroke="#231F20" fill="#02023a"/>
  <path stroke-width="0" d="m306.544006,342.490997c0,0 8.117004,-14.684998 5.488007,-33.319c0,0 2.365997,-1.738983 2.171997,-3.39801c0,0 -0.992004,-1.506989 -3.415985,-1.403992c0,0 -7.210022,-21.915985 -28.368011,-21.835999c0,0 3.790985,-6.140991 7.54599,-10.29599c2.679016,-2.964996 10.259003,-4.278992 14.063019,-4.458008c5.060974,-0.238007 16.431976,2.593994 22.638,12.746002c6.207977,10.152008 7.569977,19.933014 7.431976,26.131012c-0.257996,11.582977 -11.975006,25.143982 -27.554993,35.833984z" stroke="#231F20" fill="#02023a"/>
  <path stroke-width="0" d="m337.183014,302.410004c0,0 -1.188019,-15.722015 -11.976013,-28.522003c0,0 -0.022003,-0.756012 -0.682983,-2.056c0,0 -1.050995,-1.104004 -2.524994,-0.975006c0,0 -15.792023,-13.108002 -31.697021,-3.049988c0,0 -0.04599,-6.416992 0.819,-11.322998c0.618011,-3.501007 5.709015,-8.074005 8.490021,-10.007004c3.699982,-2.570007 13.608002,-5.811005 23.082977,-1.094009c9.47702,4.718002 15.125,11.442993 17.951996,16.179993c5.281006,8.851013 3.225006,25.428009 -3.462982,40.847015z" stroke="#231F20" fill="#02023a"/>
  <path stroke-width="0" d="m343.040009,258.006012c0,0 -7.13501,-12.766006 -21.286011,-18.535995c0,0 -0.313995,-0.630005 -1.381989,-1.422012c0,0 -1.321991,-0.438995 -2.523987,0.363007c0,0 -18.524017,-3.675003 -28.120026,12.337006c0,0 -2.177002,-4.208008 -3.373993,-8.769012c-1.417999,-5.401001 1.365021,-10.745987 2.976013,-13.692001c2.141998,-3.919998 9.312988,-8.85199 19.200989,-9.314987c9.890015,-0.460999 15.832001,2.116989 20.078003,4.802002c7.934998,5.014984 14.105988,18.014984 14.431,34.231995z" stroke="#231F20" fill="#02023a"/>
  <path stroke-width="0" d="m328.187012,219.382004c0,0 -11.68399,-6.64801 -25.705994,-4.751007c0,0 -0.544006,-0.345001 -1.770996,-0.479004c0,0 -1.263,0.256012 -1.850006,1.41301c0,0 -16.539001,5.477005 -16.720001,22.136993c0,0 -3.713013,-2.269989 -6.804993,-5.250992c-3.663025,-3.531006 -3.938019,-8.903 -4.029022,-11.901001c-0.121002,-3.984009 3.308014,-11.007004 11.001007,-15.802002c7.695007,-4.794006 13.654999,-5.471008 18.309998,-5.306c8.696991,0.309998 19.720001,7.572998 27.570007,19.940002z" stroke="#231F20" fill="#02023a"/>
  <path stroke-width="0" d="m299.048004,197.781006c0,0 -12.248993,-0.173996 -22.520996,7.568008c0,0 -0.585999,-0.036011 -1.619019,0.399002c0,0 -0.886993,0.766998 -0.832001,1.957001c0,0 -10.66098,11.737991 -3.329987,25.225998c0,0 -3.963013,-0.181 -7.753998,-1.209c-4.489014,-1.221008 -7.117004,-5.423004 -8.535004,-7.796005c-1.882996,-3.151993 -2.313004,-10.322998 1.636993,-17.593994c3.953003,-7.268005 8.377014,-10.453003 12.143005,-12.383011c7.036011,-3.603012 19.037994,-2.641998 30.811005,3.832001z" stroke="#231F20" fill="#02023a"/>
  <path stroke-width="0" d="m263.214996,194.365997c0,0 -5.492004,4.762009 -10.873993,14.938995c0,0 -0.389008,0.231003 -0.904999,1.153c0,0 -0.348999,0.724014 -0.169006,1.708008c0,0 -4.054993,13.705002 7.651001,22.565994c0,0 -3.386993,1.238998 -6.979996,1.700012c-4.255997,0.542999 -8.19101,-2.097 -10.35701,-3.611008c-2.877991,-2.011993 -5.551987,-7.444 -5.257996,-15c0.296997,-7.552994 1.861008,-9.927002 4.210007,-12.888c4.388992,-5.531006 10.394989,-9.020004 22.681992,-10.567001z" stroke="#231F20" fill="#02023a"/>
  <path stroke-width="0" d="m235.804993,207.908997c0,0 -2.285995,5.895996 -2.014999,15.915009c0,0 -0.210007,0.335999 -0.209,1.255997c0,0 0.04599,0.696991 0.640991,1.380997c0,0 2.956009,12.188004 16.492004,14.225006c0,0 -2.184006,2.332001 -4.888992,4.153c-3.207001,2.151993 -7.602005,1.728989 -10.050003,1.447998c-3.251999,-0.373001 -7.897003,-3.458008 -11.102005,-9.38501c-3.201004,-5.925995 -3.013992,-8.388992 -2.457993,-11.621994c1.042007,-6.041992 4.324997,-11.175003 13.589996,-17.371002z" stroke="#231F20" fill="#02023a"/>
  <path stroke-width="0" d="m218.893005,231.128998c0,0 0.887009,5.376007 5.528,12.654999c0,0 -0.009995,0.343002 0.39801,1.020004c0,0 0.343994,0.494995 1.095001,0.735001c0,0 7.625,7.686996 18.735001,3.156006c0,0 0.024994,3.330994 -1.209015,5.881989c-1.464996,3.019989 -4.748993,3.787018 -7.575989,4.915009c-2.665009,1.062988 -7.486008,0.96701 -12.527008,-1.981995c-5.037003,-2.949005 -5.987,-4.854004 -7,-7.489014c-1.889999,-4.929001 -1.688004,-10.18399 2.556,-18.891998z" stroke="#231F20" fill="#02023a"/>
  <path stroke-width="0" d="m217.147995,256.200989c0,0 3.068008,3.859009 10.029007,7.40799c0,0 0.140991,0.279022 0.768997,0.620026c0,0 0.496994,0.22699 1.214005,0.051971c0,0 9.570999,2.420013 16.653,-6.613983c0,0 1.473999,2.645996 1.580994,5.28299c0.123001,3.128021 -2.220001,5.34201 -4.033005,7.619995c-1.709,2.149017 -5.682999,4.425018 -11.079987,4.526001c-5.394012,0.104004 -7,-0.953979 -8.975021,-2.563995c-3.689987,-3.013977 -5.817978,-7.307983 -6.15799,-16.330994z" stroke="#231F20" fill="#02023a"/>
  <path stroke-width="0" d="m250.408005,264.632996c0,0 -1.631012,15.890015 -22.475006,12.80899c0,0 8.096008,11.058014 20.904007,5.801025c0,-0.001007 13.35199,-9.125 1.570999,-18.610016z" stroke="#231F20" fill="#02023a"/>
  <path stroke-width="0" d="m257.035004,267.756989c0,0 7.376007,12.019989 -10.117004,20.645996c0,0 11.537994,3.479004 18.411987,-6.852997c0,0.001007 5.791016,-13.223999 -8.294983,-13.792999z" stroke="#231F20" fill="#02023a"/>
  <path stroke-width="0" d="m264.988007,267.649994c0,0 10.399017,6.390991 -0.940002,20.540009c0,0 11.468018,-1.307007 12.338013,-12.742004c-0.000031,0 0.428986,-13.26001 -11.39801,-7.798004z" stroke="#231F20" fill="#02023a"/>
  <path stroke-width="0" d="m269.593994,262.141998c0,0 12.164001,1.020996 8.412994,18.761993c0,0 9.506012,-7.212982 4.966003,-16.250977c-4.539001,-9.039001 -11.667999,-4.501007 -13.378998,-2.511017z" stroke="#231F20" fill="#02023a"/>
  <path stroke-width="0" d="m271.348999,257.994995c0,0 9.445007,-4.778992 15.06601,9.425995c0,0 3.595978,-9.38501 -4.020996,-13.703995c-7.617004,-4.320999 -10.725006,2.102005 -11.045013,4.278z" stroke="#231F20" fill="#02023a"/>
  <path stroke-width="0" d="m271.019989,252.632004c0,0 5.515991,-8.02301 16.316986,0.962997c0,0 -1.237,-9.160004 -9.289978,-9.287003c-8.053009,-0.128998 -7.729004,6.425995 -7.027008,8.324005z" stroke="#231F20" fill="#02023a"/>
  <path stroke-width="0" d="m268.052002,248.220993c0,0 0.774994,-8.434006 12.794006,-6.206009c0,0 -4.833008,-6.426987 -10.999023,-3.098999c-6.165985,3.325012 -3.133972,8.16301 -1.794983,9.305008z" stroke="#231F20" fill="#02023a"/>
  <path stroke-width="0" d="m262.726013,246.141006c0,0 -2.808014,-6.783997 7.312988,-9.925995c0,0 -6.302979,-2.979996 -9.690002,2.063004c-3.389984,5.037979 0.889008,7.526978 2.377014,7.862991z" stroke="#231F20" fill="#02023a"/>
  <path stroke-width="0" d="m259.591003,247.783005c0,0 -5.906006,-2.115005 -2.088989,-10.325012c0,0 -5.502014,2.280014 -4.253021,7.319c1.24501,5.036011 5.276001,3.755005 6.34201,3.006012z" stroke="#231F20" fill="#02023a"/>
  <path stroke-width="0" d="m256.328003,250.432007c0,0 -5.238007,1.143997 -6.192001,-6.537003c0,0 -2.953995,4.147003 0.233994,7.23201c3.186005,3.085983 5.525009,0.329987 5.958008,-0.695007z" stroke="#231F20" fill="#02023a"/>
  <path stroke-width="0" d="m255.352997,254.311005c0,0 -3.25,3.348999 -7.636002,-1.764999c0,0 -0.147995,4.430984 3.649002,5.134995c3.792999,0.707001 4.165009,-2.417999 3.987,-3.369995z" stroke="#231F20" fill="#02023a"/>
  <path stroke-width="0" d="m256.643005,257.963013c0,0 -0.774002,3.889008 -6.261993,2.263c0,0 1.938004,3.230011 4.972,1.980011c3.031998,-1.245026 1.856979,-3.64502 1.289993,-4.243011z" stroke="#231F20" fill="#02023a"/>
  <path stroke-width="0" d="m259.078003,260.183014c0,0 1.553009,2.583008 -2.364014,4.475006c0,0 2.740997,0.825989 3.808014,-1.429016c1.069,-2.25 -0.820007,-3 -1.444,-3.04599z" stroke="#231F20" fill="#02023a"/>
 </g>
</svg>