<?xml version="1.0" encoding="UTF-8" standalone="no"?>
<!DOCTYPE svg PUBLIC "-//W3C//DTD SVG 1.1//EN"
 "http://www.w3.org/Graphics/SVG/1.1/DTD/svg11.dtd">
<!-- Generated by graphviz version 2.38.0 (20140413.2041)
 -->
<!-- Title: G Pages: 1 -->
<svg width="3373pt" height="1154pt"
 viewBox="0.00 0.00 3373.20 1154.09" xmlns="http://www.w3.org/2000/svg" xmlns:xlink="http://www.w3.org/1999/xlink">
<g id="graph0" class="graph" transform="scale(1 1) rotate(0) translate(21.6 1132.49)">
<title>G</title>
<polygon fill="#111111" stroke="none" points="-21.6,21.6 -21.6,-1132.49 3351.6,-1132.49 3351.6,21.6 -21.6,21.6"/>
<!-- App.css -->
<g id="node1" class="node"><title>App.css</title>
<path fill="none" stroke="#cfffac" d="M1099.83,-302.892C1099.83,-302.892 1046.17,-302.892 1046.17,-302.892 1042.33,-302.892 1038.5,-299.059 1038.5,-295.225 1038.5,-295.225 1038.5,-287.559 1038.5,-287.559 1038.5,-283.725 1042.33,-279.892 1046.17,-279.892 1046.17,-279.892 1099.83,-279.892 1099.83,-279.892 1103.67,-279.892 1107.5,-283.725 1107.5,-287.559 1107.5,-287.559 1107.5,-295.225 1107.5,-295.225 1107.5,-299.059 1103.67,-302.892 1099.83,-302.892"/>
<text text-anchor="middle" x="1073" y="-287.692" font-family="Arial" font-size="14.00" fill="#cfffac">App.css</text>
</g>
<!-- App.js -->
<g id="node2" class="node"><title>App.js</title>
<path fill="none" stroke="#c6c5fe" d="M796.333,-302.892C796.333,-302.892 754.667,-302.892 754.667,-302.892 750.833,-302.892 747,-299.059 747,-295.225 747,-295.225 747,-287.559 747,-287.559 747,-283.725 750.833,-279.892 754.667,-279.892 754.667,-279.892 796.333,-279.892 796.333,-279.892 800.167,-279.892 804,-283.725 804,-287.559 804,-287.559 804,-295.225 804,-295.225 804,-299.059 800.167,-302.892 796.333,-302.892"/>
<text text-anchor="middle" x="775.5" y="-287.692" font-family="Arial" font-size="14.00" fill="#c6c5fe">App.js</text>
</g>
<!-- App.js&#45;&gt;App.css -->
<g id="edge1" class="edge"><title>App.js&#45;&gt;App.css</title>
<path fill="none" stroke="#757575" d="M804.035,-291.392C855.367,-291.392 966.07,-291.392 1027.92,-291.392"/>
<polygon fill="#757575" stroke="#757575" points="1028.14,-294.892 1038.14,-291.392 1028.14,-287.892 1028.14,-294.892"/>
</g>
<!-- components/Navigation/Navigation.js -->
<g id="node3" class="node"><title>components/Navigation/Navigation.js</title>
<path fill="none" stroke="#c6c5fe" d="M1189.33,-908.892C1189.33,-908.892 956.667,-908.892 956.667,-908.892 952.833,-908.892 949,-905.059 949,-901.225 949,-901.225 949,-893.559 949,-893.559 949,-889.725 952.833,-885.892 956.667,-885.892 956.667,-885.892 1189.33,-885.892 1189.33,-885.892 1193.17,-885.892 1197,-889.725 1197,-893.559 1197,-893.559 1197,-901.225 1197,-901.225 1197,-905.059 1193.17,-908.892 1189.33,-908.892"/>
<text text-anchor="middle" x="1073" y="-893.692" font-family="Arial" font-size="14.00" fill="#c6c5fe">components/Navigation/Navigation.js</text>
</g>
<!-- App.js&#45;&gt;components/Navigation/Navigation.js -->
<g id="edge2" class="edge"><title>App.js&#45;&gt;components/Navigation/Navigation.js</title>
<path fill="none" stroke="#757575" d="M803.569,-302.95C835.103,-317.888 886.28,-346.988 913,-388.392 958.183,-458.407 926.171,-492.252 949,-572.392 982.554,-690.183 1040.24,-825.539 1062.69,-876.525"/>
<polygon fill="#757575" stroke="#757575" points="1059.56,-878.1 1066.8,-885.828 1065.96,-875.267 1059.56,-878.1"/>
</g>
<!-- containers/About/About.js -->
<g id="node4" class="node"><title>containers/About/About.js</title>
<path fill="none" stroke="#c6c5fe" d="M1154.83,-220.892C1154.83,-220.892 991.167,-220.892 991.167,-220.892 987.333,-220.892 983.5,-217.059 983.5,-213.225 983.5,-213.225 983.5,-205.559 983.5,-205.559 983.5,-201.725 987.333,-197.892 991.167,-197.892 991.167,-197.892 1154.83,-197.892 1154.83,-197.892 1158.67,-197.892 1162.5,-201.725 1162.5,-205.559 1162.5,-205.559 1162.5,-213.225 1162.5,-213.225 1162.5,-217.059 1158.67,-220.892 1154.83,-220.892"/>
<text text-anchor="middle" x="1073" y="-205.692" font-family="Arial" font-size="14.00" fill="#c6c5fe">containers/About/About.js</text>
</g>
<!-- App.js&#45;&gt;containers/About/About.js -->
<g id="edge3" class="edge"><title>App.js&#45;&gt;containers/About/About.js</title>
<path fill="none" stroke="#757575" d="M804.152,-292.529C833.044,-292.534 878.835,-289.121 913,-270.392 934.264,-258.735 927.786,-241.139 949,-229.392 956.701,-225.128 965.061,-221.714 973.676,-218.987"/>
<polygon fill="#757575" stroke="#757575" points="974.83,-222.298 983.489,-216.193 972.913,-215.565 974.83,-222.298"/>
</g>
<!-- containers/Album/Album.js -->
<g id="node5" class="node"><title>containers/Album/Album.js</title>
<path fill="none" stroke="#c6c5fe" d="M1157.83,-261.892C1157.83,-261.892 988.167,-261.892 988.167,-261.892 984.333,-261.892 980.5,-258.059 980.5,-254.225 980.5,-254.225 980.5,-246.559 980.5,-246.559 980.5,-242.725 984.333,-238.892 988.167,-238.892 988.167,-238.892 1157.83,-238.892 1157.83,-238.892 1161.67,-238.892 1165.5,-242.725 1165.5,-246.559 1165.5,-246.559 1165.5,-254.225 1165.5,-254.225 1165.5,-258.059 1161.67,-261.892 1157.83,-261.892"/>
<text text-anchor="middle" x="1073" y="-246.692" font-family="Arial" font-size="14.00" fill="#c6c5fe">containers/Album/Album.js</text>
</g>
<!-- App.js&#45;&gt;containers/Album/Album.js -->
<g id="edge4" class="edge"><title>App.js&#45;&gt;containers/Album/Album.js</title>
<path fill="none" stroke="#757575" d="M804.035,-287.571C843.597,-282.082 918.427,-271.7 978.976,-263.299"/>
<polygon fill="#757575" stroke="#757575" points="979.523,-266.756 988.947,-261.915 978.561,-259.823 979.523,-266.756"/>
</g>
<!-- containers/Insta/Insta.js -->
<g id="node6" class="node"><title>containers/Insta/Insta.js</title>
<path fill="none" stroke="#c6c5fe" d="M1147.83,-563.892C1147.83,-563.892 998.167,-563.892 998.167,-563.892 994.333,-563.892 990.5,-560.059 990.5,-556.225 990.5,-556.225 990.5,-548.559 990.5,-548.559 990.5,-544.725 994.333,-540.892 998.167,-540.892 998.167,-540.892 1147.83,-540.892 1147.83,-540.892 1151.67,-540.892 1155.5,-544.725 1155.5,-548.559 1155.5,-548.559 1155.5,-556.225 1155.5,-556.225 1155.5,-560.059 1151.67,-563.892 1147.83,-563.892"/>
<text text-anchor="middle" x="1073" y="-548.692" font-family="Arial" font-size="14.00" fill="#c6c5fe">containers/Insta/Insta.js</text>
</g>
<!-- App.js&#45;&gt;containers/Insta/Insta.js -->
<g id="edge5" class="edge"><title>App.js&#45;&gt;containers/Insta/Insta.js</title>
<path fill="none" stroke="#757575" d="M802.644,-302.932C833.762,-318.034 885.02,-347.476 913,-388.392 949.995,-442.491 900.896,-486.88 949,-531.392 957.944,-539.668 968.896,-545.321 980.541,-549.104"/>
<polygon fill="#757575" stroke="#757575" points="979.886,-552.554 990.458,-551.859 981.76,-545.81 979.886,-552.554"/>
</g>
<!-- containers/Shop/Shop.js -->
<g id="node7" class="node"><title>containers/Shop/Shop.js</title>
<path fill="none" stroke="#cfffac" d="M1150.83,-179.892C1150.83,-179.892 995.167,-179.892 995.167,-179.892 991.333,-179.892 987.5,-176.059 987.5,-172.225 987.5,-172.225 987.5,-164.559 987.5,-164.559 987.5,-160.725 991.333,-156.892 995.167,-156.892 995.167,-156.892 1150.83,-156.892 1150.83,-156.892 1154.67,-156.892 1158.5,-160.725 1158.5,-164.559 1158.5,-164.559 1158.5,-172.225 1158.5,-172.225 1158.5,-176.059 1154.67,-179.892 1150.83,-179.892"/>
<text text-anchor="middle" x="1073" y="-164.692" font-family="Arial" font-size="14.00" fill="#cfffac">containers/Shop/Shop.js</text>
</g>
<!-- App.js&#45;&gt;containers/Shop/Shop.js -->
<g id="edge6" class="edge"><title>App.js&#45;&gt;containers/Shop/Shop.js</title>
<path fill="none" stroke="#757575" d="M804.087,-294.452C833.988,-296.246 881.623,-294.487 913,-270.392 944.568,-246.15 917.536,-212.768 949,-188.392 957.511,-181.798 967.361,-177.012 977.708,-173.58"/>
<polygon fill="#757575" stroke="#757575" points="978.694,-176.938 987.326,-170.796 976.748,-170.214 978.694,-176.938"/>
</g>
<!-- containers/Work/Work.js -->
<g id="node8" class="node"><title>containers/Work/Work.js</title>
<path fill="none" stroke="#c6c5fe" d="M1150.83,-420.892C1150.83,-420.892 995.167,-420.892 995.167,-420.892 991.333,-420.892 987.5,-417.059 987.5,-413.225 987.5,-413.225 987.5,-405.559 987.5,-405.559 987.5,-401.725 991.333,-397.892 995.167,-397.892 995.167,-397.892 1150.83,-397.892 1150.83,-397.892 1154.67,-397.892 1158.5,-401.725 1158.5,-405.559 1158.5,-405.559 1158.5,-413.225 1158.5,-413.225 1158.5,-417.059 1154.67,-420.892 1150.83,-420.892"/>
<text text-anchor="middle" x="1073" y="-405.692" font-family="Arial" font-size="14.00" fill="#c6c5fe">containers/Work/Work.js</text>
</g>
<!-- App.js&#45;&gt;containers/Work/Work.js -->
<g id="edge7" class="edge"><title>App.js&#45;&gt;containers/Work/Work.js</title>
<path fill="none" stroke="#757575" d="M804.035,-302.387C856.966,-323.524 973.024,-369.868 1033.55,-394.039"/>
<polygon fill="#757575" stroke="#757575" points="1032.54,-397.403 1043.13,-397.861 1035.14,-390.902 1032.54,-397.403"/>
</g>
<!-- index.css -->
<g id="node9" class="node"><title>index.css</title>
<path fill="none" stroke="#cfffac" d="M1103.83,-138.892C1103.83,-138.892 1042.17,-138.892 1042.17,-138.892 1038.33,-138.892 1034.5,-135.059 1034.5,-131.225 1034.5,-131.225 1034.5,-123.559 1034.5,-123.559 1034.5,-119.725 1038.33,-115.892 1042.17,-115.892 1042.17,-115.892 1103.83,-115.892 1103.83,-115.892 1107.67,-115.892 1111.5,-119.725 1111.5,-123.559 1111.5,-123.559 1111.5,-131.225 1111.5,-131.225 1111.5,-135.059 1107.67,-138.892 1103.83,-138.892"/>
<text text-anchor="middle" x="1073" y="-123.692" font-family="Arial" font-size="14.00" fill="#cfffac">index.css</text>
</g>
<!-- App.js&#45;&gt;index.css -->
<g id="edge8" class="edge"><title>App.js&#45;&gt;index.css</title>
<path fill="none" stroke="#757575" d="M804.149,-295.154C834.554,-297.661 883.06,-296.617 913,-270.392 955.847,-232.861 906.314,-185.106 949,-147.392 969.235,-129.514 998.974,-124.314 1024.14,-123.68"/>
<polygon fill="#757575" stroke="#757575" points="1024.25,-127.18 1034.25,-123.657 1024.24,-120.18 1024.25,-127.18"/>
</g>
<!-- api/NavigationAPI.js -->
<g id="node13" class="node"><title>api/NavigationAPI.js</title>
<path fill="none" stroke="#cfffac" d="M2232.83,-930.892C2232.83,-930.892 2105.17,-930.892 2105.17,-930.892 2101.33,-930.892 2097.5,-927.059 2097.5,-923.225 2097.5,-923.225 2097.5,-915.559 2097.5,-915.559 2097.5,-911.725 2101.33,-907.892 2105.17,-907.892 2105.17,-907.892 2232.83,-907.892 2232.83,-907.892 2236.67,-907.892 2240.5,-911.725 2240.5,-915.559 2240.5,-915.559 2240.5,-923.225 2240.5,-923.225 2240.5,-927.059 2236.67,-930.892 2232.83,-930.892"/>
<text text-anchor="middle" x="2169" y="-915.692" font-family="Arial" font-size="14.00" fill="#cfffac">api/NavigationAPI.js</text>
</g>
<!-- components/Navigation/Navigation.js&#45;&gt;api/NavigationAPI.js -->
<g id="edge31" class="edge"><title>components/Navigation/Navigation.js&#45;&gt;api/NavigationAPI.js</title>
<path fill="none" stroke="#757575" d="M1197.1,-899.867C1422.91,-904.408 1897.52,-913.953 2087.18,-917.767"/>
<polygon fill="#757575" stroke="#757575" points="2087.29,-921.269 2097.36,-917.971 2087.43,-914.271 2087.29,-921.269"/>
</g>
<!-- components/Logo/Logo.js -->
<g id="node23" class="node"><title>components/Logo/Logo.js</title>
<path fill="none" stroke="#c6c5fe" d="M2252.83,-1040.89C2252.83,-1040.89 2085.17,-1040.89 2085.17,-1040.89 2081.33,-1040.89 2077.5,-1037.06 2077.5,-1033.23 2077.5,-1033.23 2077.5,-1025.56 2077.5,-1025.56 2077.5,-1021.73 2081.33,-1017.89 2085.17,-1017.89 2085.17,-1017.89 2252.83,-1017.89 2252.83,-1017.89 2256.67,-1017.89 2260.5,-1021.73 2260.5,-1025.56 2260.5,-1025.56 2260.5,-1033.23 2260.5,-1033.23 2260.5,-1037.06 2256.67,-1040.89 2252.83,-1040.89"/>
<text text-anchor="middle" x="2169" y="-1025.69" font-family="Arial" font-size="14.00" fill="#c6c5fe">components/Logo/Logo.js</text>
</g>
<!-- components/Navigation/Navigation.js&#45;&gt;components/Logo/Logo.js -->
<g id="edge32" class="edge"><title>components/Navigation/Navigation.js&#45;&gt;components/Logo/Logo.js</title>
<path fill="none" stroke="#757575" d="M1097.84,-908.942C1128.36,-923.128 1183.26,-946.629 1233,-957.392 1492.45,-1013.53 1564.42,-974.863 1829,-996.392 1909.17,-1002.91 1999.84,-1011.82 2067.23,-1018.74"/>
<polygon fill="#757575" stroke="#757575" points="2067.12,-1022.25 2077.42,-1019.79 2067.83,-1015.28 2067.12,-1022.25"/>
</g>
<!-- components/Navigation/DesktopNavigation/DesktopNavigation.js -->
<g id="node28" class="node"><title>components/Navigation/DesktopNavigation/DesktopNavigation.js</title>
<path fill="none" stroke="#c6c5fe" d="M1734.83,-807.892C1734.83,-807.892 1327.17,-807.892 1327.17,-807.892 1323.33,-807.892 1319.5,-804.059 1319.5,-800.225 1319.5,-800.225 1319.5,-792.559 1319.5,-792.559 1319.5,-788.725 1323.33,-784.892 1327.17,-784.892 1327.17,-784.892 1734.83,-784.892 1734.83,-784.892 1738.67,-784.892 1742.5,-788.725 1742.5,-792.559 1742.5,-792.559 1742.5,-800.225 1742.5,-800.225 1742.5,-804.059 1738.67,-807.892 1734.83,-807.892"/>
<text text-anchor="middle" x="1531" y="-792.692" font-family="Arial" font-size="14.00" fill="#c6c5fe">components/Navigation/DesktopNavigation/DesktopNavigation.js</text>
</g>
<!-- components/Navigation/Navigation.js&#45;&gt;components/Navigation/DesktopNavigation/DesktopNavigation.js -->
<g id="edge33" class="edge"><title>components/Navigation/Navigation.js&#45;&gt;components/Navigation/DesktopNavigation/DesktopNavigation.js</title>
<path fill="none" stroke="#757575" d="M1098.75,-885.821C1129.53,-871.919 1184.02,-848.905 1233,-836.392 1281.69,-823.953 1335.92,-815.206 1384.58,-809.136"/>
<polygon fill="#757575" stroke="#757575" points="1385.05,-812.605 1394.56,-807.92 1384.21,-805.656 1385.05,-812.605"/>
</g>
<!-- components/Navigation/DesktopNavigation/DesktopNavigationLink/DesktopNavigationLink.js -->
<g id="node30" class="node"><title>components/Navigation/DesktopNavigation/DesktopNavigationLink/DesktopNavigationLink.js</title>
<path fill="none" stroke="#c6c5fe" d="M1821.33,-948.892C1821.33,-948.892 1240.67,-948.892 1240.67,-948.892 1236.83,-948.892 1233,-945.059 1233,-941.225 1233,-941.225 1233,-933.559 1233,-933.559 1233,-929.725 1236.83,-925.892 1240.67,-925.892 1240.67,-925.892 1821.33,-925.892 1821.33,-925.892 1825.17,-925.892 1829,-929.725 1829,-933.559 1829,-933.559 1829,-941.225 1829,-941.225 1829,-945.059 1825.17,-948.892 1821.33,-948.892"/>
<text text-anchor="middle" x="1531" y="-933.692" font-family="Arial" font-size="14.00" fill="#c6c5fe">components/Navigation/DesktopNavigation/DesktopNavigationLink/DesktopNavigationLink.js</text>
</g>
<!-- components/Navigation/Navigation.js&#45;&gt;components/Navigation/DesktopNavigation/DesktopNavigationLink/DesktopNavigationLink.js -->
<g id="edge34" class="edge"><title>components/Navigation/Navigation.js&#45;&gt;components/Navigation/DesktopNavigation/DesktopNavigationLink/DesktopNavigationLink.js</title>
<path fill="none" stroke="#757575" d="M1197.26,-908.251C1209.34,-909.313 1221.41,-910.374 1233,-911.392 1283.65,-915.839 1339.16,-920.701 1388.34,-925.005"/>
<polygon fill="#757575" stroke="#757575" points="1388.15,-928.502 1398.41,-925.887 1388.76,-921.528 1388.15,-928.502"/>
</g>
<!-- components/Navigation/MobileNavigation/MobileNavigation.js -->
<g id="node34" class="node"><title>components/Navigation/MobileNavigation/MobileNavigation.js</title>
<path fill="none" stroke="#c6c5fe" d="M1723.83,-868.892C1723.83,-868.892 1338.17,-868.892 1338.17,-868.892 1334.33,-868.892 1330.5,-865.059 1330.5,-861.225 1330.5,-861.225 1330.5,-853.559 1330.5,-853.559 1330.5,-849.725 1334.33,-845.892 1338.17,-845.892 1338.17,-845.892 1723.83,-845.892 1723.83,-845.892 1727.67,-845.892 1731.5,-849.725 1731.5,-853.559 1731.5,-853.559 1731.5,-861.225 1731.5,-861.225 1731.5,-865.059 1727.67,-868.892 1723.83,-868.892"/>
<text text-anchor="middle" x="1531" y="-853.692" font-family="Arial" font-size="14.00" fill="#c6c5fe">components/Navigation/MobileNavigation/MobileNavigation.js</text>
</g>
<!-- components/Navigation/Navigation.js&#45;&gt;components/Navigation/MobileNavigation/MobileNavigation.js -->
<g id="edge35" class="edge"><title>components/Navigation/Navigation.js&#45;&gt;components/Navigation/MobileNavigation/MobileNavigation.js</title>
<path fill="none" stroke="#757575" d="M1197.26,-886.533C1209.34,-885.471 1221.41,-884.41 1233,-883.392 1283.65,-878.945 1339.16,-874.083 1388.34,-869.778"/>
<polygon fill="#757575" stroke="#757575" points="1388.76,-873.255 1398.41,-868.897 1388.15,-866.282 1388.76,-873.255"/>
</g>
<!-- components/Navigation/Navigation.css -->
<g id="node38" class="node"><title>components/Navigation/Navigation.css</title>
<path fill="none" stroke="#cfffac" d="M1653.33,-1028.89C1653.33,-1028.89 1408.67,-1028.89 1408.67,-1028.89 1404.83,-1028.89 1401,-1025.06 1401,-1021.23 1401,-1021.23 1401,-1013.56 1401,-1013.56 1401,-1009.73 1404.83,-1005.89 1408.67,-1005.89 1408.67,-1005.89 1653.33,-1005.89 1653.33,-1005.89 1657.17,-1005.89 1661,-1009.73 1661,-1013.56 1661,-1013.56 1661,-1021.23 1661,-1021.23 1661,-1025.06 1657.17,-1028.89 1653.33,-1028.89"/>
<text text-anchor="middle" x="1531" y="-1013.69" font-family="Arial" font-size="14.00" fill="#cfffac">components/Navigation/Navigation.css</text>
</g>
<!-- components/Navigation/Navigation.js&#45;&gt;components/Navigation/Navigation.css -->
<g id="edge36" class="edge"><title>components/Navigation/Navigation.js&#45;&gt;components/Navigation/Navigation.css</title>
<path fill="none" stroke="#757575" d="M1088.69,-909.201C1115.5,-930.01 1174.99,-972.769 1233,-991.392 1283.01,-1007.45 1340.05,-1014.86 1390.68,-1017.96"/>
<polygon fill="#757575" stroke="#757575" points="1390.53,-1021.45 1400.71,-1018.52 1390.93,-1014.47 1390.53,-1021.45"/>
</g>
<!-- containers/About/About.css -->
<g id="node43" class="node"><title>containers/About/About.css</title>
<path fill="none" stroke="#cfffac" d="M1618.83,-35.8919C1618.83,-35.8919 1443.17,-35.8919 1443.17,-35.8919 1439.33,-35.8919 1435.5,-32.0585 1435.5,-28.2252 1435.5,-28.2252 1435.5,-20.5585 1435.5,-20.5585 1435.5,-16.7252 1439.33,-12.8919 1443.17,-12.8919 1443.17,-12.8919 1618.83,-12.8919 1618.83,-12.8919 1622.67,-12.8919 1626.5,-16.7252 1626.5,-20.5585 1626.5,-20.5585 1626.5,-28.2252 1626.5,-28.2252 1626.5,-32.0585 1622.67,-35.8919 1618.83,-35.8919"/>
<text text-anchor="middle" x="1531" y="-20.6919" font-family="Arial" font-size="14.00" fill="#cfffac">containers/About/About.css</text>
</g>
<!-- containers/About/About.js&#45;&gt;containers/About/About.css -->
<g id="edge42" class="edge"><title>containers/About/About.js&#45;&gt;containers/About/About.css</title>
<path fill="none" stroke="#757575" d="M1162.51,-207.037C1175.25,-203.269 1187.31,-197.375 1197,-188.392 1245.38,-143.547 1182.4,-86.7153 1233,-44.3919 1300.73,12.257 1410.35,2.19776 1475.77,-10.7592"/>
<polygon fill="#757575" stroke="#757575" points="1475.38,-14.2517 1485.88,-12.8538 1476.8,-7.3973 1475.38,-14.2517"/>
</g>
<!-- containers/About/AboutSidebar.js -->
<g id="node44" class="node"><title>containers/About/AboutSidebar.js</title>
<path fill="none" stroke="#cfffac" d="M1637.33,-117.892C1637.33,-117.892 1424.67,-117.892 1424.67,-117.892 1420.83,-117.892 1417,-114.059 1417,-110.225 1417,-110.225 1417,-102.559 1417,-102.559 1417,-98.7252 1420.83,-94.8919 1424.67,-94.8919 1424.67,-94.8919 1637.33,-94.8919 1637.33,-94.8919 1641.17,-94.8919 1645,-98.7252 1645,-102.559 1645,-102.559 1645,-110.225 1645,-110.225 1645,-114.059 1641.17,-117.892 1637.33,-117.892"/>
<text text-anchor="middle" x="1531" y="-102.692" font-family="Arial" font-size="14.00" fill="#cfffac">containers/About/AboutSidebar.js</text>
</g>
<!-- containers/About/About.js&#45;&gt;containers/About/AboutSidebar.js -->
<g id="edge43" class="edge"><title>containers/About/About.js&#45;&gt;containers/About/AboutSidebar.js</title>
<path fill="none" stroke="#757575" d="M1162.72,-203.908C1174.93,-200.468 1186.77,-195.496 1197,-188.392 1223.17,-170.219 1205.94,-143.209 1233,-126.392 1301.12,-84.0614 1395.8,-85.7052 1459.8,-93.5629"/>
<polygon fill="#757575" stroke="#757575" points="1459.43,-97.0443 1469.8,-94.8716 1460.34,-90.1034 1459.43,-97.0443"/>
</g>
<!-- containers/About/AboutText.js -->
<g id="node45" class="node"><title>containers/About/AboutText.js</title>
<path fill="none" stroke="#cfffac" d="M1625.83,-76.8919C1625.83,-76.8919 1436.17,-76.8919 1436.17,-76.8919 1432.33,-76.8919 1428.5,-73.0585 1428.5,-69.2252 1428.5,-69.2252 1428.5,-61.5585 1428.5,-61.5585 1428.5,-57.7252 1432.33,-53.8919 1436.17,-53.8919 1436.17,-53.8919 1625.83,-53.8919 1625.83,-53.8919 1629.67,-53.8919 1633.5,-57.7252 1633.5,-61.5585 1633.5,-61.5585 1633.5,-69.2252 1633.5,-69.2252 1633.5,-73.0585 1629.67,-76.8919 1625.83,-76.8919"/>
<text text-anchor="middle" x="1531" y="-61.6919" font-family="Arial" font-size="14.00" fill="#cfffac">containers/About/AboutText.js</text>
</g>
<!-- containers/About/About.js&#45;&gt;containers/About/AboutText.js -->
<g id="edge44" class="edge"><title>containers/About/About.js&#45;&gt;containers/About/AboutText.js</title>
<path fill="none" stroke="#757575" d="M1162.76,-205.977C1175.24,-202.301 1187.16,-196.714 1197,-188.392 1234.03,-157.084 1194.42,-114.774 1233,-85.3919 1261.57,-63.6354 1346.63,-59.6057 1418.44,-60.4684"/>
<polygon fill="#757575" stroke="#757575" points="1418.43,-63.9685 1428.48,-60.6213 1418.54,-56.9693 1418.43,-63.9685"/>
</g>
<!-- api/AlbumAPI.js -->
<g id="node11" class="node"><title>api/AlbumAPI.js</title>
<path fill="none" stroke="#c6c5fe" d="M2220.33,-381.892C2220.33,-381.892 2117.67,-381.892 2117.67,-381.892 2113.83,-381.892 2110,-378.059 2110,-374.225 2110,-374.225 2110,-366.559 2110,-366.559 2110,-362.725 2113.83,-358.892 2117.67,-358.892 2117.67,-358.892 2220.33,-358.892 2220.33,-358.892 2224.17,-358.892 2228,-362.725 2228,-366.559 2228,-366.559 2228,-374.225 2228,-374.225 2228,-378.059 2224.17,-381.892 2220.33,-381.892"/>
<text text-anchor="middle" x="2169" y="-366.692" font-family="Arial" font-size="14.00" fill="#c6c5fe">api/AlbumAPI.js</text>
</g>
<!-- containers/Album/Album.js&#45;&gt;api/AlbumAPI.js -->
<g id="edge46" class="edge"><title>containers/Album/Album.js&#45;&gt;api/AlbumAPI.js</title>
<path fill="none" stroke="#757575" d="M1165.51,-255.972C1176.71,-259.275 1187.53,-263.923 1197,-270.392 1222.99,-288.152 1205.99,-315.216 1233,-331.392 1306.68,-375.523 1896.53,-373.359 2099.6,-371.269"/>
<polygon fill="#757575" stroke="#757575" points="2099.87,-374.767 2109.83,-371.16 2099.8,-367.767 2099.87,-374.767"/>
</g>
<!-- containers/Album/Album.css -->
<g id="node47" class="node"><title>containers/Album/Album.css</title>
<path fill="none" stroke="#cfffac" d="M1621.83,-322.892C1621.83,-322.892 1440.17,-322.892 1440.17,-322.892 1436.33,-322.892 1432.5,-319.059 1432.5,-315.225 1432.5,-315.225 1432.5,-307.559 1432.5,-307.559 1432.5,-303.725 1436.33,-299.892 1440.17,-299.892 1440.17,-299.892 1621.83,-299.892 1621.83,-299.892 1625.67,-299.892 1629.5,-303.725 1629.5,-307.559 1629.5,-307.559 1629.5,-315.225 1629.5,-315.225 1629.5,-319.059 1625.67,-322.892 1621.83,-322.892"/>
<text text-anchor="middle" x="1531" y="-307.692" font-family="Arial" font-size="14.00" fill="#cfffac">containers/Album/Album.css</text>
</g>
<!-- containers/Album/Album.js&#45;&gt;containers/Album/Album.css -->
<g id="edge47" class="edge"><title>containers/Album/Album.js&#45;&gt;containers/Album/Album.css</title>
<path fill="none" stroke="#757575" d="M1165.56,-261.655C1176.3,-264.037 1186.99,-266.915 1197,-270.392 1214.29,-276.395 1215.45,-285.178 1233,-290.392 1294,-308.518 1365.01,-314.067 1422.31,-314.944"/>
<polygon fill="#757575" stroke="#757575" points="1422.43,-318.445 1432.47,-315.053 1422.51,-311.446 1422.43,-318.445"/>
</g>
<!-- containers/Album/AlbumCarousel/AlbumCarousel.js -->
<g id="node48" class="node"><title>containers/Album/AlbumCarousel/AlbumCarousel.js</title>
<path fill="none" stroke="#c6c5fe" d="M1694.83,-199.892C1694.83,-199.892 1367.17,-199.892 1367.17,-199.892 1363.33,-199.892 1359.5,-196.059 1359.5,-192.225 1359.5,-192.225 1359.5,-184.559 1359.5,-184.559 1359.5,-180.725 1363.33,-176.892 1367.17,-176.892 1367.17,-176.892 1694.83,-176.892 1694.83,-176.892 1698.67,-176.892 1702.5,-180.725 1702.5,-184.559 1702.5,-184.559 1702.5,-192.225 1702.5,-192.225 1702.5,-196.059 1698.67,-199.892 1694.83,-199.892"/>
<text text-anchor="middle" x="1531" y="-184.692" font-family="Arial" font-size="14.00" fill="#c6c5fe">containers/Album/AlbumCarousel/AlbumCarousel.js</text>
</g>
<!-- containers/Album/Album.js&#45;&gt;containers/Album/AlbumCarousel/AlbumCarousel.js -->
<g id="edge48" class="edge"><title>containers/Album/Album.js&#45;&gt;containers/Album/AlbumCarousel/AlbumCarousel.js</title>
<path fill="none" stroke="#757575" d="M1164.32,-238.82C1175.49,-236.269 1186.62,-233.166 1197,-229.392 1214.41,-223.065 1215.29,-213.824 1233,-208.392 1269.74,-197.122 1310.19,-190.712 1349.1,-187.289"/>
<polygon fill="#757575" stroke="#757575" points="1349.81,-190.743 1359.49,-186.441 1349.24,-183.766 1349.81,-190.743"/>
</g>
<!-- containers/Album/AlbumControls/AlbumControls.js -->
<g id="node49" class="node"><title>containers/Album/AlbumControls/AlbumControls.js</title>
<path fill="none" stroke="#c6c5fe" d="M1690.83,-240.892C1690.83,-240.892 1371.17,-240.892 1371.17,-240.892 1367.33,-240.892 1363.5,-237.059 1363.5,-233.225 1363.5,-233.225 1363.5,-225.559 1363.5,-225.559 1363.5,-221.725 1367.33,-217.892 1371.17,-217.892 1371.17,-217.892 1690.83,-217.892 1690.83,-217.892 1694.67,-217.892 1698.5,-221.725 1698.5,-225.559 1698.5,-225.559 1698.5,-233.225 1698.5,-233.225 1698.5,-237.059 1694.67,-240.892 1690.83,-240.892"/>
<text text-anchor="middle" x="1531" y="-225.692" font-family="Arial" font-size="14.00" fill="#c6c5fe">containers/Album/AlbumControls/AlbumControls.js</text>
</g>
<!-- containers/Album/Album.js&#45;&gt;containers/Album/AlbumControls/AlbumControls.js -->
<g id="edge49" class="edge"><title>containers/Album/Album.js&#45;&gt;containers/Album/AlbumControls/AlbumControls.js</title>
<path fill="none" stroke="#757575" d="M1165.73,-246.167C1219.42,-243.695 1289.04,-240.488 1353.02,-237.542"/>
<polygon fill="#757575" stroke="#757575" points="1353.4,-241.028 1363.23,-237.072 1353.08,-234.036 1353.4,-241.028"/>
</g>
<!-- containers/Album/AlbumConverter.js -->
<g id="node50" class="node"><title>containers/Album/AlbumConverter.js</title>
<path fill="none" stroke="#cfffac" d="M1646.83,-281.892C1646.83,-281.892 1415.17,-281.892 1415.17,-281.892 1411.33,-281.892 1407.5,-278.059 1407.5,-274.225 1407.5,-274.225 1407.5,-266.559 1407.5,-266.559 1407.5,-262.725 1411.33,-258.892 1415.17,-258.892 1415.17,-258.892 1646.83,-258.892 1646.83,-258.892 1650.67,-258.892 1654.5,-262.725 1654.5,-266.559 1654.5,-266.559 1654.5,-274.225 1654.5,-274.225 1654.5,-278.059 1650.67,-281.892 1646.83,-281.892"/>
<text text-anchor="middle" x="1531" y="-266.692" font-family="Arial" font-size="14.00" fill="#cfffac">containers/Album/AlbumConverter.js</text>
</g>
<!-- containers/Album/Album.js&#45;&gt;containers/Album/AlbumConverter.js -->
<g id="edge50" class="edge"><title>containers/Album/Album.js&#45;&gt;containers/Album/AlbumConverter.js</title>
<path fill="none" stroke="#757575" d="M1165.73,-254.415C1232.05,-257.324 1322.67,-261.298 1396.93,-264.556"/>
<polygon fill="#757575" stroke="#757575" points="1397.15,-268.069 1407.3,-265.01 1397.46,-261.075 1397.15,-268.069"/>
</g>
<!-- containers/Album/AlbumInfo/AlbumInfo.js -->
<g id="node51" class="node"><title>containers/Album/AlbumInfo/AlbumInfo.js</title>
<path fill="none" stroke="#c6c5fe" d="M1662.33,-158.892C1662.33,-158.892 1399.67,-158.892 1399.67,-158.892 1395.83,-158.892 1392,-155.059 1392,-151.225 1392,-151.225 1392,-143.559 1392,-143.559 1392,-139.725 1395.83,-135.892 1399.67,-135.892 1399.67,-135.892 1662.33,-135.892 1662.33,-135.892 1666.17,-135.892 1670,-139.725 1670,-143.559 1670,-143.559 1670,-151.225 1670,-151.225 1670,-155.059 1666.17,-158.892 1662.33,-158.892"/>
<text text-anchor="middle" x="1531" y="-143.692" font-family="Arial" font-size="14.00" fill="#c6c5fe">containers/Album/AlbumInfo/AlbumInfo.js</text>
</g>
<!-- containers/Album/Album.js&#45;&gt;containers/Album/AlbumInfo/AlbumInfo.js -->
<g id="edge51" class="edge"><title>containers/Album/Album.js&#45;&gt;containers/Album/AlbumInfo/AlbumInfo.js</title>
<path fill="none" stroke="#757575" d="M1165.58,-244.072C1176.77,-240.677 1187.57,-235.94 1197,-229.392 1223.17,-211.219 1205.94,-184.209 1233,-167.392 1301.12,-125.061 1395.8,-126.705 1459.8,-134.563"/>
<polygon fill="#757575" stroke="#757575" points="1459.43,-138.044 1469.8,-135.872 1460.34,-131.103 1459.43,-138.044"/>
</g>
<!-- components/Button/Button.js -->
<g id="node15" class="node"><title>components/Button/Button.js</title>
<path fill="none" stroke="#c6c5fe" d="M2887.83,-705.892C2887.83,-705.892 2705.17,-705.892 2705.17,-705.892 2701.33,-705.892 2697.5,-702.059 2697.5,-698.225 2697.5,-698.225 2697.5,-690.559 2697.5,-690.559 2697.5,-686.725 2701.33,-682.892 2705.17,-682.892 2705.17,-682.892 2887.83,-682.892 2887.83,-682.892 2891.67,-682.892 2895.5,-686.725 2895.5,-690.559 2895.5,-690.559 2895.5,-698.225 2895.5,-698.225 2895.5,-702.059 2891.67,-705.892 2887.83,-705.892"/>
<text text-anchor="middle" x="2796.5" y="-690.692" font-family="Arial" font-size="14.00" fill="#c6c5fe">components/Button/Button.js</text>
</g>
<!-- containers/Insta/Insta.js&#45;&gt;components/Button/Button.js -->
<g id="edge63" class="edge"><title>containers/Insta/Insta.js&#45;&gt;components/Button/Button.js</title>
<path fill="none" stroke="#757575" d="M1146.84,-563.899C1286,-585.412 1599.43,-631.603 1865,-654.392 2161.76,-679.857 2513.22,-689.386 2687.02,-692.727"/>
<polygon fill="#757575" stroke="#757575" points="2687.12,-696.23 2697.19,-692.919 2687.26,-689.231 2687.12,-696.23"/>
</g>
<!-- components/Gallery/Gallery.js -->
<g id="node19" class="node"><title>components/Gallery/Gallery.js</title>
<path fill="none" stroke="#c6c5fe" d="M1626.33,-522.892C1626.33,-522.892 1435.67,-522.892 1435.67,-522.892 1431.83,-522.892 1428,-519.059 1428,-515.225 1428,-515.225 1428,-507.559 1428,-507.559 1428,-503.725 1431.83,-499.892 1435.67,-499.892 1435.67,-499.892 1626.33,-499.892 1626.33,-499.892 1630.17,-499.892 1634,-503.725 1634,-507.559 1634,-507.559 1634,-515.225 1634,-515.225 1634,-519.059 1630.17,-522.892 1626.33,-522.892"/>
<text text-anchor="middle" x="1531" y="-507.692" font-family="Arial" font-size="14.00" fill="#c6c5fe">components/Gallery/Gallery.js</text>
</g>
<!-- containers/Insta/Insta.js&#45;&gt;components/Gallery/Gallery.js -->
<g id="edge64" class="edge"><title>containers/Insta/Insta.js&#45;&gt;components/Gallery/Gallery.js</title>
<path fill="none" stroke="#757575" d="M1153.55,-540.869C1178.9,-537.469 1207.09,-533.972 1233,-531.392 1293.88,-525.328 1361.96,-520.596 1417.57,-517.26"/>
<polygon fill="#757575" stroke="#757575" points="1418.03,-520.739 1427.8,-516.653 1417.62,-513.751 1418.03,-520.739"/>
</g>
<!-- containers/Insta/InstagramAPI.js -->
<g id="node62" class="node"><title>containers/Insta/InstagramAPI.js</title>
<path fill="none" stroke="#c6c5fe" d="M1633.83,-563.892C1633.83,-563.892 1428.17,-563.892 1428.17,-563.892 1424.33,-563.892 1420.5,-560.059 1420.5,-556.225 1420.5,-556.225 1420.5,-548.559 1420.5,-548.559 1420.5,-544.725 1424.33,-540.892 1428.17,-540.892 1428.17,-540.892 1633.83,-540.892 1633.83,-540.892 1637.67,-540.892 1641.5,-544.725 1641.5,-548.559 1641.5,-548.559 1641.5,-556.225 1641.5,-556.225 1641.5,-560.059 1637.67,-563.892 1633.83,-563.892"/>
<text text-anchor="middle" x="1531" y="-548.692" font-family="Arial" font-size="14.00" fill="#c6c5fe">containers/Insta/InstagramAPI.js</text>
</g>
<!-- containers/Insta/Insta.js&#45;&gt;containers/Insta/InstagramAPI.js -->
<g id="edge65" class="edge"><title>containers/Insta/Insta.js&#45;&gt;containers/Insta/InstagramAPI.js</title>
<path fill="none" stroke="#757575" d="M1155.52,-552.392C1226.4,-552.392 1330.02,-552.392 1410.31,-552.392"/>
<polygon fill="#757575" stroke="#757575" points="1410.48,-555.892 1420.48,-552.392 1410.48,-548.892 1410.48,-555.892"/>
</g>
<!-- containers/Work/Work.js&#45;&gt;api/AlbumAPI.js -->
<g id="edge73" class="edge"><title>containers/Work/Work.js&#45;&gt;api/AlbumAPI.js</title>
<path fill="none" stroke="#757575" d="M1158.93,-406.364C1368.81,-398.882 1908.7,-379.636 2099.75,-372.825"/>
<polygon fill="#757575" stroke="#757575" points="2100.07,-376.316 2109.94,-372.462 2099.82,-369.32 2100.07,-376.316"/>
</g>
<!-- containers/Work/Work.js&#45;&gt;components/Gallery/Gallery.js -->
<g id="edge74" class="edge"><title>containers/Work/Work.js&#45;&gt;components/Gallery/Gallery.js</title>
<path fill="none" stroke="#757575" d="M1091.16,-421.089C1119.33,-439.585 1177.78,-475.056 1233,-490.392 1292.67,-506.963 1361.54,-512.623 1417.93,-513.955"/>
<polygon fill="#757575" stroke="#757575" points="1417.88,-517.455 1427.94,-514.15 1418.01,-510.456 1417.88,-517.455"/>
</g>
<!-- containers/Work/Work.css -->
<g id="node70" class="node"><title>containers/Work/Work.css</title>
<path fill="none" stroke="#cfffac" d="M1614.83,-440.892C1614.83,-440.892 1447.17,-440.892 1447.17,-440.892 1443.33,-440.892 1439.5,-437.059 1439.5,-433.225 1439.5,-433.225 1439.5,-425.559 1439.5,-425.559 1439.5,-421.725 1443.33,-417.892 1447.17,-417.892 1447.17,-417.892 1614.83,-417.892 1614.83,-417.892 1618.67,-417.892 1622.5,-421.725 1622.5,-425.559 1622.5,-425.559 1622.5,-433.225 1622.5,-433.225 1622.5,-437.059 1618.67,-440.892 1614.83,-440.892"/>
<text text-anchor="middle" x="1531" y="-425.692" font-family="Arial" font-size="14.00" fill="#cfffac">containers/Work/Work.css</text>
</g>
<!-- containers/Work/Work.js&#45;&gt;containers/Work/Work.css -->
<g id="edge75" class="edge"><title>containers/Work/Work.js&#45;&gt;containers/Work/Work.css</title>
<path fill="none" stroke="#757575" d="M1158.7,-413.107C1235.15,-416.46 1347.74,-421.398 1428.88,-424.957"/>
<polygon fill="#757575" stroke="#757575" points="1428.97,-428.464 1439.11,-425.405 1429.27,-421.471 1428.97,-428.464"/>
</g>
<!-- App.test.js -->
<g id="node10" class="node"><title>App.test.js</title>
<path fill="none" stroke="#c6c5fe" d="M335.333,-302.892C335.333,-302.892 266.667,-302.892 266.667,-302.892 262.833,-302.892 259,-299.059 259,-295.225 259,-295.225 259,-287.559 259,-287.559 259,-283.725 262.833,-279.892 266.667,-279.892 266.667,-279.892 335.333,-279.892 335.333,-279.892 339.167,-279.892 343,-283.725 343,-287.559 343,-287.559 343,-295.225 343,-295.225 343,-299.059 339.167,-302.892 335.333,-302.892"/>
<text text-anchor="middle" x="301" y="-287.692" font-family="Arial" font-size="14.00" fill="#c6c5fe">App.test.js</text>
</g>
<!-- App.test.js&#45;&gt;App.js -->
<g id="edge9" class="edge"><title>App.test.js&#45;&gt;App.js</title>
<path fill="none" stroke="#757575" d="M343.105,-291.392C433.629,-291.392 649.094,-291.392 736.592,-291.392"/>
<polygon fill="#757575" stroke="#757575" points="736.854,-294.892 746.854,-291.392 736.854,-287.892 736.854,-294.892"/>
</g>
<!-- api/utils.js -->
<g id="node12" class="node"><title>api/utils.js</title>
<path fill="none" stroke="#cfffac" d="M2827.83,-381.892C2827.83,-381.892 2765.17,-381.892 2765.17,-381.892 2761.33,-381.892 2757.5,-378.059 2757.5,-374.225 2757.5,-374.225 2757.5,-366.559 2757.5,-366.559 2757.5,-362.725 2761.33,-358.892 2765.17,-358.892 2765.17,-358.892 2827.83,-358.892 2827.83,-358.892 2831.67,-358.892 2835.5,-362.725 2835.5,-366.559 2835.5,-366.559 2835.5,-374.225 2835.5,-374.225 2835.5,-378.059 2831.67,-381.892 2827.83,-381.892"/>
<text text-anchor="middle" x="2796.5" y="-366.692" font-family="Arial" font-size="14.00" fill="#cfffac">api/utils.js</text>
</g>
<!-- api/AlbumAPI.js&#45;&gt;api/utils.js -->
<g id="edge10" class="edge"><title>api/AlbumAPI.js&#45;&gt;api/utils.js</title>
<path fill="none" stroke="#757575" d="M2228,-370.392C2350.47,-370.392 2633.48,-370.392 2747.05,-370.392"/>
<polygon fill="#757575" stroke="#757575" points="2747.18,-373.892 2757.18,-370.392 2747.18,-366.892 2747.18,-373.892"/>
</g>
<!-- components/Button/Button.css -->
<g id="node14" class="node"><title>components/Button/Button.css</title>
<path fill="none" stroke="#cfffac" d="M3322.33,-705.892C3322.33,-705.892 3127.67,-705.892 3127.67,-705.892 3123.83,-705.892 3120,-702.059 3120,-698.225 3120,-698.225 3120,-690.559 3120,-690.559 3120,-686.725 3123.83,-682.892 3127.67,-682.892 3127.67,-682.892 3322.33,-682.892 3322.33,-682.892 3326.17,-682.892 3330,-686.725 3330,-690.559 3330,-690.559 3330,-698.225 3330,-698.225 3330,-702.059 3326.17,-705.892 3322.33,-705.892"/>
<text text-anchor="middle" x="3225" y="-690.692" font-family="Arial" font-size="14.00" fill="#cfffac">components/Button/Button.css</text>
</g>
<!-- components/Button/Button.js&#45;&gt;components/Button/Button.css -->
<g id="edge11" class="edge"><title>components/Button/Button.js&#45;&gt;components/Button/Button.css</title>
<path fill="none" stroke="#757575" d="M2895.62,-694.392C2959.37,-694.392 3042.73,-694.392 3109.51,-694.392"/>
<polygon fill="#757575" stroke="#757575" points="3109.66,-697.892 3119.66,-694.392 3109.66,-690.892 3109.66,-697.892"/>
</g>
<!-- components/Button/Button.stories.js -->
<g id="node16" class="node"><title>components/Button/Button.stories.js</title>
<path fill="none" stroke="#c6c5fe" d="M2283.83,-725.892C2283.83,-725.892 2054.17,-725.892 2054.17,-725.892 2050.33,-725.892 2046.5,-722.059 2046.5,-718.225 2046.5,-718.225 2046.5,-710.559 2046.5,-710.559 2046.5,-706.725 2050.33,-702.892 2054.17,-702.892 2054.17,-702.892 2283.83,-702.892 2283.83,-702.892 2287.67,-702.892 2291.5,-706.725 2291.5,-710.559 2291.5,-710.559 2291.5,-718.225 2291.5,-718.225 2291.5,-722.059 2287.67,-725.892 2283.83,-725.892"/>
<text text-anchor="middle" x="2169" y="-710.692" font-family="Arial" font-size="14.00" fill="#c6c5fe">components/Button/Button.stories.js</text>
</g>
<!-- components/Button/Button.stories.js&#45;&gt;components/Button/Button.js -->
<g id="edge12" class="edge"><title>components/Button/Button.stories.js&#45;&gt;components/Button/Button.js</title>
<path fill="none" stroke="#757575" d="M2291.72,-710.5C2406.48,-706.83 2576.88,-701.382 2687.08,-697.858"/>
<polygon fill="#757575" stroke="#757575" points="2687.34,-701.352 2697.22,-697.534 2687.12,-694.356 2687.34,-701.352"/>
</g>
<!-- components/Button/Button.test.js -->
<g id="node17" class="node"><title>components/Button/Button.test.js</title>
<path fill="none" stroke="#c6c5fe" d="M2273.83,-604.892C2273.83,-604.892 2064.17,-604.892 2064.17,-604.892 2060.33,-604.892 2056.5,-601.059 2056.5,-597.225 2056.5,-597.225 2056.5,-589.559 2056.5,-589.559 2056.5,-585.725 2060.33,-581.892 2064.17,-581.892 2064.17,-581.892 2273.83,-581.892 2273.83,-581.892 2277.67,-581.892 2281.5,-585.725 2281.5,-589.559 2281.5,-589.559 2281.5,-597.225 2281.5,-597.225 2281.5,-601.059 2277.67,-604.892 2273.83,-604.892"/>
<text text-anchor="middle" x="2169" y="-589.692" font-family="Arial" font-size="14.00" fill="#c6c5fe">components/Button/Button.test.js</text>
</g>
<!-- components/Button/Button.test.js&#45;&gt;components/Button/Button.js -->
<g id="edge13" class="edge"><title>components/Button/Button.test.js&#45;&gt;components/Button/Button.js</title>
<path fill="none" stroke="#757575" d="M2281.7,-595.959C2339.14,-598.492 2410.12,-603.502 2473,-613.392 2572.67,-629.067 2686.56,-661.091 2748.8,-679.836"/>
<polygon fill="#757575" stroke="#757575" points="2748.12,-683.287 2758.7,-682.838 2750.15,-676.588 2748.12,-683.287"/>
</g>
<!-- components/Gallery/Gallery.css -->
<g id="node18" class="node"><title>components/Gallery/Gallery.css</title>
<path fill="none" stroke="#cfffac" d="M2270.33,-522.892C2270.33,-522.892 2067.67,-522.892 2067.67,-522.892 2063.83,-522.892 2060,-519.059 2060,-515.225 2060,-515.225 2060,-507.559 2060,-507.559 2060,-503.725 2063.83,-499.892 2067.67,-499.892 2067.67,-499.892 2270.33,-499.892 2270.33,-499.892 2274.17,-499.892 2278,-503.725 2278,-507.559 2278,-507.559 2278,-515.225 2278,-515.225 2278,-519.059 2274.17,-522.892 2270.33,-522.892"/>
<text text-anchor="middle" x="2169" y="-507.692" font-family="Arial" font-size="14.00" fill="#cfffac">components/Gallery/Gallery.css</text>
</g>
<!-- components/Gallery/Gallery.js&#45;&gt;components/Gallery/Gallery.css -->
<g id="edge14" class="edge"><title>components/Gallery/Gallery.js&#45;&gt;components/Gallery/Gallery.css</title>
<path fill="none" stroke="#757575" d="M1634.18,-511.392C1747.55,-511.392 1930.19,-511.392 2049.67,-511.392"/>
<polygon fill="#757575" stroke="#757575" points="2049.95,-514.892 2059.95,-511.392 2049.95,-507.892 2049.95,-514.892"/>
</g>
<!-- components/Thumbnail/Thumbnail.js -->
<g id="node20" class="node"><title>components/Thumbnail/Thumbnail.js</title>
<path fill="none" stroke="#c6c5fe" d="M2285.33,-481.892C2285.33,-481.892 2052.67,-481.892 2052.67,-481.892 2048.83,-481.892 2045,-478.059 2045,-474.225 2045,-474.225 2045,-466.559 2045,-466.559 2045,-462.725 2048.83,-458.892 2052.67,-458.892 2052.67,-458.892 2285.33,-458.892 2285.33,-458.892 2289.17,-458.892 2293,-462.725 2293,-466.559 2293,-466.559 2293,-474.225 2293,-474.225 2293,-478.059 2289.17,-481.892 2285.33,-481.892"/>
<text text-anchor="middle" x="2169" y="-466.692" font-family="Arial" font-size="14.00" fill="#c6c5fe">components/Thumbnail/Thumbnail.js</text>
</g>
<!-- components/Gallery/Gallery.js&#45;&gt;components/Thumbnail/Thumbnail.js -->
<g id="edge15" class="edge"><title>components/Gallery/Gallery.js&#45;&gt;components/Thumbnail/Thumbnail.js</title>
<path fill="none" stroke="#757575" d="M1634.18,-504.804C1742.85,-497.799 1915.19,-486.689 2034.52,-478.997"/>
<polygon fill="#757575" stroke="#757575" points="2035.06,-482.469 2044.82,-478.333 2034.61,-475.484 2035.06,-482.469"/>
</g>
<!-- components/Thumbnail/Thumbnail.css -->
<g id="node40" class="node"><title>components/Thumbnail/Thumbnail.css</title>
<path fill="none" stroke="#cfffac" d="M2918.83,-481.892C2918.83,-481.892 2674.17,-481.892 2674.17,-481.892 2670.33,-481.892 2666.5,-478.059 2666.5,-474.225 2666.5,-474.225 2666.5,-466.559 2666.5,-466.559 2666.5,-462.725 2670.33,-458.892 2674.17,-458.892 2674.17,-458.892 2918.83,-458.892 2918.83,-458.892 2922.67,-458.892 2926.5,-462.725 2926.5,-466.559 2926.5,-466.559 2926.5,-474.225 2926.5,-474.225 2926.5,-478.059 2922.67,-481.892 2918.83,-481.892"/>
<text text-anchor="middle" x="2796.5" y="-466.692" font-family="Arial" font-size="14.00" fill="#cfffac">components/Thumbnail/Thumbnail.css</text>
</g>
<!-- components/Thumbnail/Thumbnail.js&#45;&gt;components/Thumbnail/Thumbnail.css -->
<g id="edge38" class="edge"><title>components/Thumbnail/Thumbnail.js&#45;&gt;components/Thumbnail/Thumbnail.css</title>
<path fill="none" stroke="#757575" d="M2293.21,-470.392C2397.7,-470.392 2547.51,-470.392 2656.31,-470.392"/>
<polygon fill="#757575" stroke="#757575" points="2656.38,-473.892 2666.38,-470.392 2656.38,-466.892 2656.38,-473.892"/>
</g>
<!-- components/Thumbnail/ThumbnailLink.js -->
<g id="node41" class="node"><title>components/Thumbnail/ThumbnailLink.js</title>
<path fill="none" stroke="#cfffac" d="M2925.33,-440.892C2925.33,-440.892 2667.67,-440.892 2667.67,-440.892 2663.83,-440.892 2660,-437.059 2660,-433.225 2660,-433.225 2660,-425.559 2660,-425.559 2660,-421.725 2663.83,-417.892 2667.67,-417.892 2667.67,-417.892 2925.33,-417.892 2925.33,-417.892 2929.17,-417.892 2933,-421.725 2933,-425.559 2933,-425.559 2933,-433.225 2933,-433.225 2933,-437.059 2929.17,-440.892 2925.33,-440.892"/>
<text text-anchor="middle" x="2796.5" y="-425.692" font-family="Arial" font-size="14.00" fill="#cfffac">components/Thumbnail/ThumbnailLink.js</text>
</g>
<!-- components/Thumbnail/Thumbnail.js&#45;&gt;components/Thumbnail/ThumbnailLink.js -->
<g id="edge39" class="edge"><title>components/Thumbnail/Thumbnail.js&#45;&gt;components/Thumbnail/ThumbnailLink.js</title>
<path fill="none" stroke="#757575" d="M2293.21,-462.316C2395.62,-455.603 2541.59,-446.035 2649.79,-438.943"/>
<polygon fill="#757575" stroke="#757575" points="2650.06,-442.432 2659.81,-438.286 2649.61,-435.447 2650.06,-442.432"/>
</g>
<!-- components/Gallery/Gallery.test.js -->
<g id="node21" class="node"><title>components/Gallery/Gallery.test.js</title>
<path fill="none" stroke="#c6c5fe" d="M1181.83,-522.892C1181.83,-522.892 964.167,-522.892 964.167,-522.892 960.333,-522.892 956.5,-519.059 956.5,-515.225 956.5,-515.225 956.5,-507.559 956.5,-507.559 956.5,-503.725 960.333,-499.892 964.167,-499.892 964.167,-499.892 1181.83,-499.892 1181.83,-499.892 1185.67,-499.892 1189.5,-503.725 1189.5,-507.559 1189.5,-507.559 1189.5,-515.225 1189.5,-515.225 1189.5,-519.059 1185.67,-522.892 1181.83,-522.892"/>
<text text-anchor="middle" x="1073" y="-507.692" font-family="Arial" font-size="14.00" fill="#c6c5fe">components/Gallery/Gallery.test.js</text>
</g>
<!-- components/Gallery/Gallery.test.js&#45;&gt;components/Gallery/Gallery.js -->
<g id="edge16" class="edge"><title>components/Gallery/Gallery.test.js&#45;&gt;components/Gallery/Gallery.js</title>
<path fill="none" stroke="#757575" d="M1189.66,-511.392C1259.57,-511.392 1348.27,-511.392 1417.59,-511.392"/>
<polygon fill="#757575" stroke="#757575" points="1417.68,-514.892 1427.68,-511.392 1417.68,-507.892 1417.68,-514.892"/>
</g>
<!-- components/Logo/Logo.css -->
<g id="node22" class="node"><title>components/Logo/Logo.css</title>
<path fill="none" stroke="#cfffac" d="M2886.33,-1060.89C2886.33,-1060.89 2706.67,-1060.89 2706.67,-1060.89 2702.83,-1060.89 2699,-1057.06 2699,-1053.23 2699,-1053.23 2699,-1045.56 2699,-1045.56 2699,-1041.73 2702.83,-1037.89 2706.67,-1037.89 2706.67,-1037.89 2886.33,-1037.89 2886.33,-1037.89 2890.17,-1037.89 2894,-1041.73 2894,-1045.56 2894,-1045.56 2894,-1053.23 2894,-1053.23 2894,-1057.06 2890.17,-1060.89 2886.33,-1060.89"/>
<text text-anchor="middle" x="2796.5" y="-1045.69" font-family="Arial" font-size="14.00" fill="#cfffac">components/Logo/Logo.css</text>
</g>
<!-- components/Logo/Logo.js&#45;&gt;components/Logo/Logo.css -->
<g id="edge17" class="edge"><title>components/Logo/Logo.js&#45;&gt;components/Logo/Logo.css</title>
<path fill="none" stroke="#757575" d="M2260.62,-1032.29C2374.04,-1035.92 2568.01,-1042.12 2688.58,-1045.97"/>
<polygon fill="#757575" stroke="#757575" points="2688.82,-1049.48 2698.93,-1046.3 2689.04,-1042.49 2688.82,-1049.48"/>
</g>
<!-- images/logo.svg -->
<g id="node24" class="node"><title>images/logo.svg</title>
<path fill="none" stroke="#cfffac" d="M2849.33,-1019.89C2849.33,-1019.89 2743.67,-1019.89 2743.67,-1019.89 2739.83,-1019.89 2736,-1016.06 2736,-1012.23 2736,-1012.23 2736,-1004.56 2736,-1004.56 2736,-1000.73 2739.83,-996.892 2743.67,-996.892 2743.67,-996.892 2849.33,-996.892 2849.33,-996.892 2853.17,-996.892 2857,-1000.73 2857,-1004.56 2857,-1004.56 2857,-1012.23 2857,-1012.23 2857,-1016.06 2853.17,-1019.89 2849.33,-1019.89"/>
<text text-anchor="middle" x="2796.5" y="-1004.69" font-family="Arial" font-size="14.00" fill="#cfffac">images/logo.svg</text>
</g>
<!-- components/Logo/Logo.js&#45;&gt;images/logo.svg -->
<g id="edge18" class="edge"><title>components/Logo/Logo.js&#45;&gt;images/logo.svg</title>
<path fill="none" stroke="#757575" d="M2260.62,-1026.35C2386.53,-1022.12 2611.72,-1014.56 2725.54,-1010.74"/>
<polygon fill="#757575" stroke="#757575" points="2726,-1014.23 2735.87,-1010.39 2725.76,-1007.23 2726,-1014.23"/>
</g>
<!-- components/Logo/Logo.stories.js -->
<g id="node25" class="node"><title>components/Logo/Logo.stories.js</title>
<path fill="none" stroke="#c6c5fe" d="M1638.33,-1069.89C1638.33,-1069.89 1423.67,-1069.89 1423.67,-1069.89 1419.83,-1069.89 1416,-1066.06 1416,-1062.23 1416,-1062.23 1416,-1054.56 1416,-1054.56 1416,-1050.73 1419.83,-1046.89 1423.67,-1046.89 1423.67,-1046.89 1638.33,-1046.89 1638.33,-1046.89 1642.17,-1046.89 1646,-1050.73 1646,-1054.56 1646,-1054.56 1646,-1062.23 1646,-1062.23 1646,-1066.06 1642.17,-1069.89 1638.33,-1069.89"/>
<text text-anchor="middle" x="1531" y="-1054.69" font-family="Arial" font-size="14.00" fill="#c6c5fe">components/Logo/Logo.stories.js</text>
</g>
<!-- components/Logo/Logo.stories.js&#45;&gt;components/Logo/Logo.js -->
<g id="edge19" class="edge"><title>components/Logo/Logo.stories.js&#45;&gt;components/Logo/Logo.js</title>
<path fill="none" stroke="#757575" d="M1646.07,-1053.19C1765.96,-1047.72 1952.73,-1039.21 2067.32,-1033.98"/>
<polygon fill="#757575" stroke="#757575" points="2067.67,-1037.47 2077.5,-1033.52 2067.35,-1030.48 2067.67,-1037.47"/>
</g>
<!-- components/Logo/Logo.test.js -->
<g id="node26" class="node"><title>components/Logo/Logo.test.js</title>
<path fill="none" stroke="#c6c5fe" d="M1628.33,-1110.89C1628.33,-1110.89 1433.67,-1110.89 1433.67,-1110.89 1429.83,-1110.89 1426,-1107.06 1426,-1103.23 1426,-1103.23 1426,-1095.56 1426,-1095.56 1426,-1091.73 1429.83,-1087.89 1433.67,-1087.89 1433.67,-1087.89 1628.33,-1087.89 1628.33,-1087.89 1632.17,-1087.89 1636,-1091.73 1636,-1095.56 1636,-1095.56 1636,-1103.23 1636,-1103.23 1636,-1107.06 1632.17,-1110.89 1628.33,-1110.89"/>
<text text-anchor="middle" x="1531" y="-1095.69" font-family="Arial" font-size="14.00" fill="#c6c5fe">components/Logo/Logo.test.js</text>
</g>
<!-- components/Logo/Logo.test.js&#45;&gt;components/Logo/Logo.js -->
<g id="edge20" class="edge"><title>components/Logo/Logo.test.js&#45;&gt;components/Logo/Logo.js</title>
<path fill="none" stroke="#757575" d="M1636.28,-1093.88C1693.31,-1090.4 1765.14,-1085.26 1829,-1078.39 1918.14,-1068.81 2019.86,-1053.52 2088.43,-1042.57"/>
<polygon fill="#757575" stroke="#757575" points="2089.4,-1045.96 2098.72,-1040.92 2088.29,-1039.05 2089.4,-1045.96"/>
</g>
<!-- components/Navigation/DesktopNavigation/DesktopNavigation.css -->
<g id="node27" class="node"><title>components/Navigation/DesktopNavigation/DesktopNavigation.css</title>
<path fill="none" stroke="#cfffac" d="M2378.83,-766.892C2378.83,-766.892 1959.17,-766.892 1959.17,-766.892 1955.33,-766.892 1951.5,-763.059 1951.5,-759.225 1951.5,-759.225 1951.5,-751.559 1951.5,-751.559 1951.5,-747.725 1955.33,-743.892 1959.17,-743.892 1959.17,-743.892 2378.83,-743.892 2378.83,-743.892 2382.67,-743.892 2386.5,-747.725 2386.5,-751.559 2386.5,-751.559 2386.5,-759.225 2386.5,-759.225 2386.5,-763.059 2382.67,-766.892 2378.83,-766.892"/>
<text text-anchor="middle" x="2169" y="-751.692" font-family="Arial" font-size="14.00" fill="#cfffac">components/Navigation/DesktopNavigation/DesktopNavigation.css</text>
</g>
<!-- components/Navigation/DesktopNavigation/DesktopNavigation.js&#45;&gt;components/Navigation/DesktopNavigation/DesktopNavigation.css -->
<g id="edge21" class="edge"><title>components/Navigation/DesktopNavigation/DesktopNavigation.js&#45;&gt;components/Navigation/DesktopNavigation/DesktopNavigation.css</title>
<path fill="none" stroke="#757575" d="M1710.43,-784.889C1794.29,-779.483 1894.3,-773.036 1979.4,-767.55"/>
<polygon fill="#757575" stroke="#757575" points="1979.68,-771.039 1989.44,-766.903 1979.23,-764.054 1979.68,-771.039"/>
</g>
<!-- components/Navigation/DesktopNavigation/DesktopNavigationLink/DesktopNavigationLink.css -->
<g id="node29" class="node"><title>components/Navigation/DesktopNavigation/DesktopNavigationLink/DesktopNavigationLink.css</title>
<path fill="none" stroke="#cfffac" d="M2465.33,-971.892C2465.33,-971.892 1872.67,-971.892 1872.67,-971.892 1868.83,-971.892 1865,-968.059 1865,-964.225 1865,-964.225 1865,-956.559 1865,-956.559 1865,-952.725 1868.83,-948.892 1872.67,-948.892 1872.67,-948.892 2465.33,-948.892 2465.33,-948.892 2469.17,-948.892 2473,-952.725 2473,-956.559 2473,-956.559 2473,-964.225 2473,-964.225 2473,-968.059 2469.17,-971.892 2465.33,-971.892"/>
<text text-anchor="middle" x="2169" y="-956.692" font-family="Arial" font-size="14.00" fill="#cfffac">components/Navigation/DesktopNavigation/DesktopNavigationLink/DesktopNavigationLink.css</text>
</g>
<!-- components/Navigation/DesktopNavigation/DesktopNavigationLink/DesktopNavigationLink.js&#45;&gt;components/Navigation/DesktopNavigation/DesktopNavigationLink/DesktopNavigationLink.css -->
<g id="edge22" class="edge"><title>components/Navigation/DesktopNavigation/DesktopNavigationLink/DesktopNavigationLink.js&#45;&gt;components/Navigation/DesktopNavigation/DesktopNavigationLink/DesktopNavigationLink.css</title>
<path fill="none" stroke="#757575" d="M1829.05,-948.134C1837.45,-948.438 1845.86,-948.742 1854.28,-949.046"/>
<polygon fill="#757575" stroke="#757575" points="1854.41,-952.554 1864.53,-949.417 1854.67,-945.558 1854.41,-952.554"/>
</g>
<!-- components/Navigation/MobileNavigation/HamburgerButton/HamburgerButton.css -->
<g id="node31" class="node"><title>components/Navigation/MobileNavigation/HamburgerButton/HamburgerButton.css</title>
<path fill="none" stroke="#cfffac" d="M3054.33,-889.892C3054.33,-889.892 2538.67,-889.892 2538.67,-889.892 2534.83,-889.892 2531,-886.059 2531,-882.225 2531,-882.225 2531,-874.559 2531,-874.559 2531,-870.725 2534.83,-866.892 2538.67,-866.892 2538.67,-866.892 3054.33,-866.892 3054.33,-866.892 3058.17,-866.892 3062,-870.725 3062,-874.559 3062,-874.559 3062,-882.225 3062,-882.225 3062,-886.059 3058.17,-889.892 3054.33,-889.892"/>
<text text-anchor="middle" x="2796.5" y="-874.692" font-family="Arial" font-size="14.00" fill="#cfffac">components/Navigation/MobileNavigation/HamburgerButton/HamburgerButton.css</text>
</g>
<!-- components/Navigation/MobileNavigation/HamburgerButton/HamburgerButton.js -->
<g id="node32" class="node"><title>components/Navigation/MobileNavigation/HamburgerButton/HamburgerButton.js</title>
<path fill="none" stroke="#c6c5fe" d="M2420.83,-889.892C2420.83,-889.892 1917.17,-889.892 1917.17,-889.892 1913.33,-889.892 1909.5,-886.059 1909.5,-882.225 1909.5,-882.225 1909.5,-874.559 1909.5,-874.559 1909.5,-870.725 1913.33,-866.892 1917.17,-866.892 1917.17,-866.892 2420.83,-866.892 2420.83,-866.892 2424.67,-866.892 2428.5,-870.725 2428.5,-874.559 2428.5,-874.559 2428.5,-882.225 2428.5,-882.225 2428.5,-886.059 2424.67,-889.892 2420.83,-889.892"/>
<text text-anchor="middle" x="2169" y="-874.692" font-family="Arial" font-size="14.00" fill="#c6c5fe">components/Navigation/MobileNavigation/HamburgerButton/HamburgerButton.js</text>
</g>
<!-- components/Navigation/MobileNavigation/HamburgerButton/HamburgerButton.js&#45;&gt;components/Navigation/MobileNavigation/HamburgerButton/HamburgerButton.css -->
<g id="edge23" class="edge"><title>components/Navigation/MobileNavigation/HamburgerButton/HamburgerButton.js&#45;&gt;components/Navigation/MobileNavigation/HamburgerButton/HamburgerButton.css</title>
<path fill="none" stroke="#757575" d="M2428.93,-878.392C2459.2,-878.392 2490.17,-878.392 2520.64,-878.392"/>
<polygon fill="#757575" stroke="#757575" points="2520.96,-881.892 2530.96,-878.392 2520.96,-874.892 2520.96,-881.892"/>
</g>
<!-- components/Navigation/MobileNavigation/MobileNavigation.css -->
<g id="node33" class="node"><title>components/Navigation/MobileNavigation/MobileNavigation.css</title>
<path fill="none" stroke="#cfffac" d="M2367.83,-807.892C2367.83,-807.892 1970.17,-807.892 1970.17,-807.892 1966.33,-807.892 1962.5,-804.059 1962.5,-800.225 1962.5,-800.225 1962.5,-792.559 1962.5,-792.559 1962.5,-788.725 1966.33,-784.892 1970.17,-784.892 1970.17,-784.892 2367.83,-784.892 2367.83,-784.892 2371.67,-784.892 2375.5,-788.725 2375.5,-792.559 2375.5,-792.559 2375.5,-800.225 2375.5,-800.225 2375.5,-804.059 2371.67,-807.892 2367.83,-807.892"/>
<text text-anchor="middle" x="2169" y="-792.692" font-family="Arial" font-size="14.00" fill="#cfffac">components/Navigation/MobileNavigation/MobileNavigation.css</text>
</g>
<!-- components/Navigation/MobileNavigation/MobileNavigation.js&#45;&gt;api/NavigationAPI.js -->
<g id="edge24" class="edge"><title>components/Navigation/MobileNavigation/MobileNavigation.js&#45;&gt;api/NavigationAPI.js</title>
<path fill="none" stroke="#757575" d="M1731.89,-866.404C1764.62,-870.3 1797.96,-875.762 1829,-883.392 1845.83,-887.53 1848.13,-894.407 1865,-898.392 1938.89,-915.848 2025.51,-920.311 2087.17,-920.875"/>
<polygon fill="#757575" stroke="#757575" points="2087.21,-924.375 2097.23,-920.934 2087.25,-917.375 2087.21,-924.375"/>
</g>
<!-- components/Navigation/MobileNavigation/MobileNavigation.js&#45;&gt;components/Logo/Logo.js -->
<g id="edge25" class="edge"><title>components/Navigation/MobileNavigation/MobileNavigation.js&#45;&gt;components/Logo/Logo.js</title>
<path fill="none" stroke="#757575" d="M1717.26,-868.921C1756.82,-878.023 1796.44,-892.788 1829,-916.392 1855.42,-935.546 1838.24,-961.713 1865,-980.392 1923.69,-1021.36 2004.2,-1032.82 2067.48,-1034.47"/>
<polygon fill="#757575" stroke="#757575" points="2067.42,-1037.97 2077.49,-1034.65 2067.55,-1030.97 2067.42,-1037.97"/>
</g>
<!-- components/Navigation/MobileNavigation/MobileNavigation.js&#45;&gt;components/Navigation/MobileNavigation/HamburgerButton/HamburgerButton.js -->
<g id="edge26" class="edge"><title>components/Navigation/MobileNavigation/MobileNavigation.js&#45;&gt;components/Navigation/MobileNavigation/HamburgerButton/HamburgerButton.js</title>
<path fill="none" stroke="#757575" d="M1731.93,-863.993C1785.01,-865.746 1843.21,-867.668 1899.3,-869.52"/>
<polygon fill="#757575" stroke="#757575" points="1899.28,-873.021 1909.39,-869.853 1899.51,-866.025 1899.28,-873.021"/>
</g>
<!-- components/Navigation/MobileNavigation/MobileNavigation.js&#45;&gt;components/Navigation/MobileNavigation/MobileNavigation.css -->
<g id="edge27" class="edge"><title>components/Navigation/MobileNavigation/MobileNavigation.js&#45;&gt;components/Navigation/MobileNavigation/MobileNavigation.css</title>
<path fill="none" stroke="#757575" d="M1614.99,-845.85C1682.28,-836.812 1779.61,-824.46 1865,-816.392 1895.31,-813.528 1927.36,-810.938 1958.83,-808.645"/>
<polygon fill="#757575" stroke="#757575" points="1959.3,-812.12 1969.03,-807.911 1958.8,-805.138 1959.3,-812.12"/>
</g>
<!-- components/Navigation/MobileNavigation/MobileNavigationLink/MobileNavigationLink.js -->
<g id="node35" class="node"><title>components/Navigation/MobileNavigation/MobileNavigationLink/MobileNavigationLink.js</title>
<path fill="none" stroke="#c6c5fe" d="M2442.83,-848.892C2442.83,-848.892 1895.17,-848.892 1895.17,-848.892 1891.33,-848.892 1887.5,-845.059 1887.5,-841.225 1887.5,-841.225 1887.5,-833.559 1887.5,-833.559 1887.5,-829.725 1891.33,-825.892 1895.17,-825.892 1895.17,-825.892 2442.83,-825.892 2442.83,-825.892 2446.67,-825.892 2450.5,-829.725 2450.5,-833.559 2450.5,-833.559 2450.5,-841.225 2450.5,-841.225 2450.5,-845.059 2446.67,-848.892 2442.83,-848.892"/>
<text text-anchor="middle" x="2169" y="-833.692" font-family="Arial" font-size="14.00" fill="#c6c5fe">components/Navigation/MobileNavigation/MobileNavigationLink/MobileNavigationLink.js</text>
</g>
<!-- components/Navigation/MobileNavigation/MobileNavigation.js&#45;&gt;components/Navigation/MobileNavigation/MobileNavigationLink/MobileNavigationLink.js -->
<g id="edge28" class="edge"><title>components/Navigation/MobileNavigation/MobileNavigation.js&#45;&gt;components/Navigation/MobileNavigation/MobileNavigationLink/MobileNavigationLink.js</title>
<path fill="none" stroke="#757575" d="M1731.93,-851.105C1778.09,-849.653 1828.13,-848.08 1877.29,-846.534"/>
<polygon fill="#757575" stroke="#757575" points="1877.56,-850.027 1887.44,-846.214 1877.34,-843.031 1877.56,-850.027"/>
</g>
<!-- components/Navigation/MobileNavigation/MobileNavigationLink/MobileNavigationLink.js&#45;&gt;components/Button/Button.js -->
<g id="edge29" class="edge"><title>components/Navigation/MobileNavigation/MobileNavigationLink/MobileNavigationLink.js&#45;&gt;components/Button/Button.js</title>
<path fill="none" stroke="#757575" d="M2420.09,-825.875C2438.08,-823.268 2455.87,-820.14 2473,-816.392 2583.01,-792.32 2705.48,-737.748 2762.7,-710.5"/>
<polygon fill="#757575" stroke="#757575" points="2764.46,-713.538 2771.96,-706.056 2761.43,-707.227 2764.46,-713.538"/>
</g>
<!-- components/Navigation/MobileNavigation/MobileNavigationLink/MobileNavigationLink.css -->
<g id="node37" class="node"><title>components/Navigation/MobileNavigation/MobileNavigationLink/MobileNavigationLink.css</title>
<path fill="none" stroke="#cfffac" d="M3076.33,-848.892C3076.33,-848.892 2516.67,-848.892 2516.67,-848.892 2512.83,-848.892 2509,-845.059 2509,-841.225 2509,-841.225 2509,-833.559 2509,-833.559 2509,-829.725 2512.83,-825.892 2516.67,-825.892 2516.67,-825.892 3076.33,-825.892 3076.33,-825.892 3080.17,-825.892 3084,-829.725 3084,-833.559 3084,-833.559 3084,-841.225 3084,-841.225 3084,-845.059 3080.17,-848.892 3076.33,-848.892"/>
<text text-anchor="middle" x="2796.5" y="-833.692" font-family="Arial" font-size="14.00" fill="#cfffac">components/Navigation/MobileNavigation/MobileNavigationLink/MobileNavigationLink.css</text>
</g>
<!-- components/Navigation/MobileNavigation/MobileNavigationLink/MobileNavigationLink.js&#45;&gt;components/Navigation/MobileNavigation/MobileNavigationLink/MobileNavigationLink.css -->
<g id="edge30" class="edge"><title>components/Navigation/MobileNavigation/MobileNavigationLink/MobileNavigationLink.js&#45;&gt;components/Navigation/MobileNavigation/MobileNavigationLink/MobileNavigationLink.css</title>
<path fill="none" stroke="#757575" d="M2450.73,-837.392C2466.58,-837.392 2482.55,-837.392 2498.45,-837.392"/>
<polygon fill="#757575" stroke="#757575" points="2498.9,-840.892 2508.9,-837.392 2498.9,-833.892 2498.9,-840.892"/>
</g>
<!-- components/Navigation/MobileNavigation/MobileNavigationDrawer/MobileNavigationDrawer.js -->
<g id="node36" class="node"><title>components/Navigation/MobileNavigation/MobileNavigationDrawer/MobileNavigationDrawer.js</title>
<path fill="none" stroke="#cfffac" d="M594.333,-343.892C594.333,-343.892 7.66667,-343.892 7.66667,-343.892 3.83333,-343.892 0,-340.059 0,-336.225 0,-336.225 0,-328.559 0,-328.559 0,-324.725 3.83333,-320.892 7.66667,-320.892 7.66667,-320.892 594.333,-320.892 594.333,-320.892 598.167,-320.892 602,-324.725 602,-328.559 602,-328.559 602,-336.225 602,-336.225 602,-340.059 598.167,-343.892 594.333,-343.892"/>
<text text-anchor="middle" x="301" y="-328.692" font-family="Arial" font-size="14.00" fill="#cfffac">components/Navigation/MobileNavigation/MobileNavigationDrawer/MobileNavigationDrawer.js</text>
</g>
<!-- components/Navigation/Navigation.test.js -->
<g id="node39" class="node"><title>components/Navigation/Navigation.test.js</title>
<path fill="none" stroke="#c6c5fe" d="M905.333,-908.892C905.333,-908.892 645.667,-908.892 645.667,-908.892 641.833,-908.892 638,-905.059 638,-901.225 638,-901.225 638,-893.559 638,-893.559 638,-889.725 641.833,-885.892 645.667,-885.892 645.667,-885.892 905.333,-885.892 905.333,-885.892 909.167,-885.892 913,-889.725 913,-893.559 913,-893.559 913,-901.225 913,-901.225 913,-905.059 909.167,-908.892 905.333,-908.892"/>
<text text-anchor="middle" x="775.5" y="-893.692" font-family="Arial" font-size="14.00" fill="#c6c5fe">components/Navigation/Navigation.test.js</text>
</g>
<!-- components/Navigation/Navigation.test.js&#45;&gt;components/Navigation/Navigation.js -->
<g id="edge37" class="edge"><title>components/Navigation/Navigation.test.js&#45;&gt;components/Navigation/Navigation.js</title>
<path fill="none" stroke="#757575" d="M913.005,-897.392C921.592,-897.392 930.23,-897.392 938.801,-897.392"/>
<polygon fill="#757575" stroke="#757575" points="938.826,-900.892 948.826,-897.392 938.826,-893.892 938.826,-900.892"/>
</g>
<!-- components/Thumbnail/Thumbnail.stories.js -->
<g id="node42" class="node"><title>components/Thumbnail/Thumbnail.stories.js</title>
<path fill="none" stroke="#c6c5fe" d="M1670.33,-481.892C1670.33,-481.892 1391.67,-481.892 1391.67,-481.892 1387.83,-481.892 1384,-478.059 1384,-474.225 1384,-474.225 1384,-466.559 1384,-466.559 1384,-462.725 1387.83,-458.892 1391.67,-458.892 1391.67,-458.892 1670.33,-458.892 1670.33,-458.892 1674.17,-458.892 1678,-462.725 1678,-466.559 1678,-466.559 1678,-474.225 1678,-474.225 1678,-478.059 1674.17,-481.892 1670.33,-481.892"/>
<text text-anchor="middle" x="1531" y="-466.692" font-family="Arial" font-size="14.00" fill="#c6c5fe">components/Thumbnail/Thumbnail.stories.js</text>
</g>
<!-- components/Thumbnail/Thumbnail.stories.js&#45;&gt;api/AlbumAPI.js -->
<g id="edge40" class="edge"><title>components/Thumbnail/Thumbnail.stories.js&#45;&gt;api/AlbumAPI.js</title>
<path fill="none" stroke="#757575" d="M1678.28,-464.665C1726.46,-461.55 1780.19,-456.758 1829,-449.392 1933.15,-433.675 2052.63,-402.737 2118.28,-384.592"/>
<polygon fill="#757575" stroke="#757575" points="2119.26,-387.953 2127.96,-381.902 2117.39,-381.208 2119.26,-387.953"/>
</g>
<!-- components/Thumbnail/Thumbnail.stories.js&#45;&gt;components/Thumbnail/Thumbnail.js -->
<g id="edge41" class="edge"><title>components/Thumbnail/Thumbnail.stories.js&#45;&gt;components/Thumbnail/Thumbnail.js</title>
<path fill="none" stroke="#757575" d="M1678.31,-470.392C1785.69,-470.392 1930.37,-470.392 2034.59,-470.392"/>
<polygon fill="#757575" stroke="#757575" points="2034.86,-473.892 2044.86,-470.392 2034.86,-466.892 2034.86,-473.892"/>
</g>
<!-- containers/About/About.test.js -->
<g id="node46" class="node"><title>containers/About/About.test.js</title>
<path fill="none" stroke="#c6c5fe" d="M870.833,-220.892C870.833,-220.892 680.167,-220.892 680.167,-220.892 676.333,-220.892 672.5,-217.059 672.5,-213.225 672.5,-213.225 672.5,-205.559 672.5,-205.559 672.5,-201.725 676.333,-197.892 680.167,-197.892 680.167,-197.892 870.833,-197.892 870.833,-197.892 874.667,-197.892 878.5,-201.725 878.5,-205.559 878.5,-205.559 878.5,-213.225 878.5,-213.225 878.5,-217.059 874.667,-220.892 870.833,-220.892"/>
<text text-anchor="middle" x="775.5" y="-205.692" font-family="Arial" font-size="14.00" fill="#c6c5fe">containers/About/About.test.js</text>
</g>
<!-- containers/About/About.test.js&#45;&gt;containers/About/About.js -->
<g id="edge45" class="edge"><title>containers/About/About.test.js&#45;&gt;containers/About/About.js</title>
<path fill="none" stroke="#757575" d="M878.608,-209.392C909.184,-209.392 942.651,-209.392 973.021,-209.392"/>
<polygon fill="#757575" stroke="#757575" points="973.193,-212.892 983.193,-209.392 973.193,-205.892 973.193,-212.892"/>
</g>
<!-- containers/Album/AlbumCarousel/AlbumCarousel.css -->
<g id="node53" class="node"><title>containers/Album/AlbumCarousel/AlbumCarousel.css</title>
<path fill="none" stroke="#cfffac" d="M2338.83,-240.892C2338.83,-240.892 1999.17,-240.892 1999.17,-240.892 1995.33,-240.892 1991.5,-237.059 1991.5,-233.225 1991.5,-233.225 1991.5,-225.559 1991.5,-225.559 1991.5,-221.725 1995.33,-217.892 1999.17,-217.892 1999.17,-217.892 2338.83,-217.892 2338.83,-217.892 2342.67,-217.892 2346.5,-221.725 2346.5,-225.559 2346.5,-225.559 2346.5,-233.225 2346.5,-233.225 2346.5,-237.059 2342.67,-240.892 2338.83,-240.892"/>
<text text-anchor="middle" x="2169" y="-225.692" font-family="Arial" font-size="14.00" fill="#cfffac">containers/Album/AlbumCarousel/AlbumCarousel.css</text>
</g>
<!-- containers/Album/AlbumCarousel/AlbumCarousel.js&#45;&gt;containers/Album/AlbumCarousel/AlbumCarousel.css -->
<g id="edge53" class="edge"><title>containers/Album/AlbumCarousel/AlbumCarousel.js&#45;&gt;containers/Album/AlbumCarousel/AlbumCarousel.css</title>
<path fill="none" stroke="#757575" d="M1702.85,-199.406C1788.86,-204.95 1893.28,-211.682 1981.38,-217.361"/>
<polygon fill="#757575" stroke="#757575" points="1981.28,-220.862 1991.49,-218.013 1981.73,-213.877 1981.28,-220.862"/>
</g>
<!-- containers/Album/AlbumCarousel/ImageGalleryOverride.css -->
<g id="node54" class="node"><title>containers/Album/AlbumCarousel/ImageGalleryOverride.css</title>
<path fill="none" stroke="#cfffac" d="M2359.83,-199.892C2359.83,-199.892 1978.17,-199.892 1978.17,-199.892 1974.33,-199.892 1970.5,-196.059 1970.5,-192.225 1970.5,-192.225 1970.5,-184.559 1970.5,-184.559 1970.5,-180.725 1974.33,-176.892 1978.17,-176.892 1978.17,-176.892 2359.83,-176.892 2359.83,-176.892 2363.67,-176.892 2367.5,-180.725 2367.5,-184.559 2367.5,-184.559 2367.5,-192.225 2367.5,-192.225 2367.5,-196.059 2363.67,-199.892 2359.83,-199.892"/>
<text text-anchor="middle" x="2169" y="-184.692" font-family="Arial" font-size="14.00" fill="#cfffac">containers/Album/AlbumCarousel/ImageGalleryOverride.css</text>
</g>
<!-- containers/Album/AlbumCarousel/AlbumCarousel.js&#45;&gt;containers/Album/AlbumCarousel/ImageGalleryOverride.css -->
<g id="edge54" class="edge"><title>containers/Album/AlbumCarousel/AlbumCarousel.js&#45;&gt;containers/Album/AlbumCarousel/ImageGalleryOverride.css</title>
<path fill="none" stroke="#757575" d="M1702.85,-188.392C1782.05,-188.392 1876.87,-188.392 1960.18,-188.392"/>
<polygon fill="#757575" stroke="#757575" points="1960.28,-191.892 1970.28,-188.392 1960.28,-184.892 1960.28,-191.892"/>
</g>
<!-- containers/Album/AlbumControls/AlbumControls.js&#45;&gt;api/AlbumAPI.js -->
<g id="edge55" class="edge"><title>containers/Album/AlbumControls/AlbumControls.js&#45;&gt;api/AlbumAPI.js</title>
<path fill="none" stroke="#757575" d="M1626.07,-217.885C1686.98,-214.611 1766.33,-218.44 1829,-249.392 1850.74,-260.13 1844.38,-277.63 1865,-290.392 1937.68,-335.371 2035.26,-355.273 2099.81,-363.937"/>
<polygon fill="#757575" stroke="#757575" points="2099.51,-367.427 2109.88,-365.233 2100.41,-360.485 2099.51,-367.427"/>
</g>
<!-- containers/Album/AlbumControls/AlbumControls.css -->
<g id="node55" class="node"><title>containers/Album/AlbumControls/AlbumControls.css</title>
<path fill="none" stroke="#cfffac" d="M2334.83,-281.892C2334.83,-281.892 2003.17,-281.892 2003.17,-281.892 1999.33,-281.892 1995.5,-278.059 1995.5,-274.225 1995.5,-274.225 1995.5,-266.559 1995.5,-266.559 1995.5,-262.725 1999.33,-258.892 2003.17,-258.892 2003.17,-258.892 2334.83,-258.892 2334.83,-258.892 2338.67,-258.892 2342.5,-262.725 2342.5,-266.559 2342.5,-266.559 2342.5,-274.225 2342.5,-274.225 2342.5,-278.059 2338.67,-281.892 2334.83,-281.892"/>
<text text-anchor="middle" x="2169" y="-266.692" font-family="Arial" font-size="14.00" fill="#cfffac">containers/Album/AlbumControls/AlbumControls.css</text>
</g>
<!-- containers/Album/AlbumControls/AlbumControls.js&#45;&gt;containers/Album/AlbumControls/AlbumControls.css -->
<g id="edge56" class="edge"><title>containers/Album/AlbumControls/AlbumControls.js&#45;&gt;containers/Album/AlbumControls/AlbumControls.css</title>
<path fill="none" stroke="#757575" d="M1698.69,-240.137C1786.75,-245.815 1895.01,-252.793 1985.35,-258.617"/>
<polygon fill="#757575" stroke="#757575" points="1985.22,-262.116 1995.43,-259.267 1985.67,-255.131 1985.22,-262.116"/>
</g>
<!-- containers/Album/AlbumInfo/AlbumDescription/AlbumDescription.js -->
<g id="node57" class="node"><title>containers/Album/AlbumInfo/AlbumDescription/AlbumDescription.js</title>
<path fill="none" stroke="#c6c5fe" d="M2382.33,-158.892C2382.33,-158.892 1955.67,-158.892 1955.67,-158.892 1951.83,-158.892 1948,-155.059 1948,-151.225 1948,-151.225 1948,-143.559 1948,-143.559 1948,-139.725 1951.83,-135.892 1955.67,-135.892 1955.67,-135.892 2382.33,-135.892 2382.33,-135.892 2386.17,-135.892 2390,-139.725 2390,-143.559 2390,-143.559 2390,-151.225 2390,-151.225 2390,-155.059 2386.17,-158.892 2382.33,-158.892"/>
<text text-anchor="middle" x="2169" y="-143.692" font-family="Arial" font-size="14.00" fill="#c6c5fe">containers/Album/AlbumInfo/AlbumDescription/AlbumDescription.js</text>
</g>
<!-- containers/Album/AlbumInfo/AlbumInfo.js&#45;&gt;containers/Album/AlbumInfo/AlbumDescription/AlbumDescription.js -->
<g id="edge61" class="edge"><title>containers/Album/AlbumInfo/AlbumInfo.js&#45;&gt;containers/Album/AlbumInfo/AlbumDescription/AlbumDescription.js</title>
<path fill="none" stroke="#757575" d="M1670,-147.392C1748.18,-147.392 1847.99,-147.392 1937.7,-147.392"/>
<polygon fill="#757575" stroke="#757575" points="1937.75,-150.892 1947.75,-147.392 1937.75,-143.892 1937.75,-150.892"/>
</g>
<!-- containers/Album/AlbumInfo/AlbumInfo.css -->
<g id="node61" class="node"><title>containers/Album/AlbumInfo/AlbumInfo.css</title>
<path fill="none" stroke="#cfffac" d="M2306.33,-117.892C2306.33,-117.892 2031.67,-117.892 2031.67,-117.892 2027.83,-117.892 2024,-114.059 2024,-110.225 2024,-110.225 2024,-102.559 2024,-102.559 2024,-98.7252 2027.83,-94.8919 2031.67,-94.8919 2031.67,-94.8919 2306.33,-94.8919 2306.33,-94.8919 2310.17,-94.8919 2314,-98.7252 2314,-102.559 2314,-102.559 2314,-110.225 2314,-110.225 2314,-114.059 2310.17,-117.892 2306.33,-117.892"/>
<text text-anchor="middle" x="2169" y="-102.692" font-family="Arial" font-size="14.00" fill="#cfffac">containers/Album/AlbumInfo/AlbumInfo.css</text>
</g>
<!-- containers/Album/AlbumInfo/AlbumInfo.js&#45;&gt;containers/Album/AlbumInfo/AlbumInfo.css -->
<g id="edge62" class="edge"><title>containers/Album/AlbumInfo/AlbumInfo.js&#45;&gt;containers/Album/AlbumInfo/AlbumInfo.css</title>
<path fill="none" stroke="#757575" d="M1670,-138.495C1771.31,-131.964 1908.96,-123.091 2013.87,-116.328"/>
<polygon fill="#757575" stroke="#757575" points="2014.17,-119.816 2023.92,-115.68 2013.72,-112.831 2014.17,-119.816"/>
</g>
<!-- containers/Album/Album.test.js -->
<g id="node52" class="node"><title>containers/Album/Album.test.js</title>
<path fill="none" stroke="#c6c5fe" d="M873.833,-261.892C873.833,-261.892 677.167,-261.892 677.167,-261.892 673.333,-261.892 669.5,-258.059 669.5,-254.225 669.5,-254.225 669.5,-246.559 669.5,-246.559 669.5,-242.725 673.333,-238.892 677.167,-238.892 677.167,-238.892 873.833,-238.892 873.833,-238.892 877.667,-238.892 881.5,-242.725 881.5,-246.559 881.5,-246.559 881.5,-254.225 881.5,-254.225 881.5,-258.059 877.667,-261.892 873.833,-261.892"/>
<text text-anchor="middle" x="775.5" y="-246.692" font-family="Arial" font-size="14.00" fill="#c6c5fe">containers/Album/Album.test.js</text>
</g>
<!-- containers/Album/Album.test.js&#45;&gt;containers/Album/Album.js -->
<g id="edge52" class="edge"><title>containers/Album/Album.test.js&#45;&gt;containers/Album/Album.js</title>
<path fill="none" stroke="#757575" d="M881.514,-250.392C910.303,-250.392 941.459,-250.392 970.071,-250.392"/>
<polygon fill="#757575" stroke="#757575" points="970.078,-253.892 980.078,-250.392 970.078,-246.892 970.078,-253.892"/>
</g>
<!-- containers/Album/AlbumInfo/AlbumDescription/AlbumDescription.css -->
<g id="node56" class="node"><title>containers/Album/AlbumInfo/AlbumDescription/AlbumDescription.css</title>
<path fill="none" stroke="#cfffac" d="M3015.83,-179.892C3015.83,-179.892 2577.17,-179.892 2577.17,-179.892 2573.33,-179.892 2569.5,-176.059 2569.5,-172.225 2569.5,-172.225 2569.5,-164.559 2569.5,-164.559 2569.5,-160.725 2573.33,-156.892 2577.17,-156.892 2577.17,-156.892 3015.83,-156.892 3015.83,-156.892 3019.67,-156.892 3023.5,-160.725 3023.5,-164.559 3023.5,-164.559 3023.5,-172.225 3023.5,-172.225 3023.5,-176.059 3019.67,-179.892 3015.83,-179.892"/>
<text text-anchor="middle" x="2796.5" y="-164.692" font-family="Arial" font-size="14.00" fill="#cfffac">containers/Album/AlbumInfo/AlbumDescription/AlbumDescription.css</text>
</g>
<!-- containers/Album/AlbumInfo/AlbumDescription/AlbumDescription.js&#45;&gt;containers/Album/AlbumInfo/AlbumDescription/AlbumDescription.css -->
<g id="edge57" class="edge"><title>containers/Album/AlbumInfo/AlbumDescription/AlbumDescription.js&#45;&gt;containers/Album/AlbumInfo/AlbumDescription/AlbumDescription.css</title>
<path fill="none" stroke="#757575" d="M2390.09,-154.781C2444.75,-156.616 2503.55,-158.59 2558.96,-160.451"/>
<polygon fill="#757575" stroke="#757575" points="2559.15,-163.959 2569.27,-160.796 2559.39,-156.963 2559.15,-163.959"/>
</g>
<!-- containers/Album/AlbumInfo/AlbumDescription/AlbumDescriptionButton.js -->
<g id="node58" class="node"><title>containers/Album/AlbumInfo/AlbumDescription/AlbumDescriptionButton.js</title>
<path fill="none" stroke="#cfffac" d="M3029.83,-138.892C3029.83,-138.892 2563.17,-138.892 2563.17,-138.892 2559.33,-138.892 2555.5,-135.059 2555.5,-131.225 2555.5,-131.225 2555.5,-123.559 2555.5,-123.559 2555.5,-119.725 2559.33,-115.892 2563.17,-115.892 2563.17,-115.892 3029.83,-115.892 3029.83,-115.892 3033.67,-115.892 3037.5,-119.725 3037.5,-123.559 3037.5,-123.559 3037.5,-131.225 3037.5,-131.225 3037.5,-135.059 3033.67,-138.892 3029.83,-138.892"/>
<text text-anchor="middle" x="2796.5" y="-123.692" font-family="Arial" font-size="14.00" fill="#cfffac">containers/Album/AlbumInfo/AlbumDescription/AlbumDescriptionButton.js</text>
</g>
<!-- containers/Album/AlbumInfo/AlbumDescription/AlbumDescription.js&#45;&gt;containers/Album/AlbumInfo/AlbumDescription/AlbumDescriptionButton.js -->
<g id="edge58" class="edge"><title>containers/Album/AlbumInfo/AlbumDescription/AlbumDescription.js&#45;&gt;containers/Album/AlbumInfo/AlbumDescription/AlbumDescriptionButton.js</title>
<path fill="none" stroke="#757575" d="M2390.09,-140.355C2440.23,-138.751 2493.86,-137.036 2545.16,-135.396"/>
<polygon fill="#757575" stroke="#757575" points="2545.51,-138.887 2555.39,-135.069 2545.28,-131.891 2545.51,-138.887"/>
</g>
<!-- containers/Album/AlbumInfo/AlbumDescription/AlbumDescriptionFullScreen.js -->
<g id="node59" class="node"><title>containers/Album/AlbumInfo/AlbumDescription/AlbumDescriptionFullScreen.js</title>
<path fill="none" stroke="#cfffac" d="M3043.83,-97.8919C3043.83,-97.8919 2549.17,-97.8919 2549.17,-97.8919 2545.33,-97.8919 2541.5,-94.0585 2541.5,-90.2252 2541.5,-90.2252 2541.5,-82.5585 2541.5,-82.5585 2541.5,-78.7252 2545.33,-74.8919 2549.17,-74.8919 2549.17,-74.8919 3043.83,-74.8919 3043.83,-74.8919 3047.67,-74.8919 3051.5,-78.7252 3051.5,-82.5585 3051.5,-82.5585 3051.5,-90.2252 3051.5,-90.2252 3051.5,-94.0585 3047.67,-97.8919 3043.83,-97.8919"/>
<text text-anchor="middle" x="2796.5" y="-82.6919" font-family="Arial" font-size="14.00" fill="#cfffac">containers/Album/AlbumInfo/AlbumDescription/AlbumDescriptionFullScreen.js</text>
</g>
<!-- containers/Album/AlbumInfo/AlbumDescription/AlbumDescription.js&#45;&gt;containers/Album/AlbumInfo/AlbumDescription/AlbumDescriptionFullScreen.js -->
<g id="edge59" class="edge"><title>containers/Album/AlbumInfo/AlbumDescription/AlbumDescription.js&#45;&gt;containers/Album/AlbumInfo/AlbumDescription/AlbumDescriptionFullScreen.js</title>
<path fill="none" stroke="#757575" d="M2390.09,-143.538C2418.33,-139.73 2446.58,-134.221 2473,-126.392 2490.55,-121.19 2491.45,-111.598 2509,-106.392 2516.73,-104.098 2524.63,-102.015 2532.64,-100.124"/>
<polygon fill="#757575" stroke="#757575" points="2533.48,-103.522 2542.47,-97.9112 2531.94,-96.693 2533.48,-103.522"/>
</g>
<!-- containers/Album/AlbumInfo/AlbumDescription/AlbumDescriptionText.js -->
<g id="node60" class="node"><title>containers/Album/AlbumInfo/AlbumDescription/AlbumDescriptionText.js</title>
<path fill="none" stroke="#cfffac" d="M3022.83,-220.892C3022.83,-220.892 2570.17,-220.892 2570.17,-220.892 2566.33,-220.892 2562.5,-217.059 2562.5,-213.225 2562.5,-213.225 2562.5,-205.559 2562.5,-205.559 2562.5,-201.725 2566.33,-197.892 2570.17,-197.892 2570.17,-197.892 3022.83,-197.892 3022.83,-197.892 3026.67,-197.892 3030.5,-201.725 3030.5,-205.559 3030.5,-205.559 3030.5,-213.225 3030.5,-213.225 3030.5,-217.059 3026.67,-220.892 3022.83,-220.892"/>
<text text-anchor="middle" x="2796.5" y="-205.692" font-family="Arial" font-size="14.00" fill="#cfffac">containers/Album/AlbumInfo/AlbumDescription/AlbumDescriptionText.js</text>
</g>
<!-- containers/Album/AlbumInfo/AlbumDescription/AlbumDescription.js&#45;&gt;containers/Album/AlbumInfo/AlbumDescription/AlbumDescriptionText.js -->
<g id="edge60" class="edge"><title>containers/Album/AlbumInfo/AlbumDescription/AlbumDescription.js&#45;&gt;containers/Album/AlbumInfo/AlbumDescription/AlbumDescriptionText.js</title>
<path fill="none" stroke="#757575" d="M2390.23,-149.914C2418.45,-153.727 2446.66,-159.331 2473,-167.392 2490.71,-172.813 2491.31,-182.907 2509,-188.392 2522.93,-192.712 2537.42,-196.318 2552.16,-199.318"/>
<polygon fill="#757575" stroke="#757575" points="2551.92,-202.836 2562.4,-201.3 2553.25,-195.964 2551.92,-202.836"/>
</g>
<!-- containers/Insta/InstagramResponseConverter.js -->
<g id="node64" class="node"><title>containers/Insta/InstagramResponseConverter.js</title>
<path fill="none" stroke="#c6c5fe" d="M2324.33,-563.892C2324.33,-563.892 2013.67,-563.892 2013.67,-563.892 2009.83,-563.892 2006,-560.059 2006,-556.225 2006,-556.225 2006,-548.559 2006,-548.559 2006,-544.725 2009.83,-540.892 2013.67,-540.892 2013.67,-540.892 2324.33,-540.892 2324.33,-540.892 2328.17,-540.892 2332,-544.725 2332,-548.559 2332,-548.559 2332,-556.225 2332,-556.225 2332,-560.059 2328.17,-563.892 2324.33,-563.892"/>
<text text-anchor="middle" x="2169" y="-548.692" font-family="Arial" font-size="14.00" fill="#c6c5fe">containers/Insta/InstagramResponseConverter.js</text>
</g>
<!-- containers/Insta/InstagramAPI.js&#45;&gt;containers/Insta/InstagramResponseConverter.js -->
<g id="edge67" class="edge"><title>containers/Insta/InstagramAPI.js&#45;&gt;containers/Insta/InstagramResponseConverter.js</title>
<path fill="none" stroke="#757575" d="M1641.69,-552.392C1739.05,-552.392 1882.92,-552.392 1995.65,-552.392"/>
<polygon fill="#757575" stroke="#757575" points="1995.77,-555.892 2005.77,-552.392 1995.77,-548.892 1995.77,-555.892"/>
</g>
<!-- tokens/InstagramAccessToken.js -->
<g id="node65" class="node"><title>tokens/InstagramAccessToken.js</title>
<path fill="none" stroke="#cfffac" d="M2274.33,-645.892C2274.33,-645.892 2063.67,-645.892 2063.67,-645.892 2059.83,-645.892 2056,-642.059 2056,-638.225 2056,-638.225 2056,-630.559 2056,-630.559 2056,-626.725 2059.83,-622.892 2063.67,-622.892 2063.67,-622.892 2274.33,-622.892 2274.33,-622.892 2278.17,-622.892 2282,-626.725 2282,-630.559 2282,-630.559 2282,-638.225 2282,-638.225 2282,-642.059 2278.17,-645.892 2274.33,-645.892"/>
<text text-anchor="middle" x="2169" y="-630.692" font-family="Arial" font-size="14.00" fill="#cfffac">tokens/InstagramAccessToken.js</text>
</g>
<!-- containers/Insta/InstagramAPI.js&#45;&gt;tokens/InstagramAccessToken.js -->
<g id="edge68" class="edge"><title>containers/Insta/InstagramAPI.js&#45;&gt;tokens/InstagramAccessToken.js</title>
<path fill="none" stroke="#757575" d="M1584.78,-563.951C1650.2,-577.842 1765.28,-600.843 1865,-613.392 1924.23,-620.845 1990.32,-625.813 2045.63,-629.036"/>
<polygon fill="#757575" stroke="#757575" points="2045.65,-632.543 2055.83,-629.618 2046.04,-625.554 2045.65,-632.543"/>
</g>
<!-- containers/Insta/Insta.test.js -->
<g id="node63" class="node"><title>containers/Insta/Insta.test.js</title>
<path fill="none" stroke="#c6c5fe" d="M863.833,-563.892C863.833,-563.892 687.167,-563.892 687.167,-563.892 683.333,-563.892 679.5,-560.059 679.5,-556.225 679.5,-556.225 679.5,-548.559 679.5,-548.559 679.5,-544.725 683.333,-540.892 687.167,-540.892 687.167,-540.892 863.833,-540.892 863.833,-540.892 867.667,-540.892 871.5,-544.725 871.5,-548.559 871.5,-548.559 871.5,-556.225 871.5,-556.225 871.5,-560.059 867.667,-563.892 863.833,-563.892"/>
<text text-anchor="middle" x="775.5" y="-548.692" font-family="Arial" font-size="14.00" fill="#c6c5fe">containers/Insta/Insta.test.js</text>
</g>
<!-- containers/Insta/Insta.test.js&#45;&gt;containers/Insta/Insta.js -->
<g id="edge66" class="edge"><title>containers/Insta/Insta.test.js&#45;&gt;containers/Insta/Insta.js</title>
<path fill="none" stroke="#757575" d="M871.625,-552.392C906.483,-552.392 945.836,-552.392 980.381,-552.392"/>
<polygon fill="#757575" stroke="#757575" points="980.462,-555.892 990.462,-552.392 980.462,-548.892 980.462,-555.892"/>
</g>
<!-- containers/Insta/InstagramBackgroundColors.js -->
<g id="node66" class="node"><title>containers/Insta/InstagramBackgroundColors.js</title>
<path fill="none" stroke="#cfffac" d="M2946.33,-604.892C2946.33,-604.892 2646.67,-604.892 2646.67,-604.892 2642.83,-604.892 2639,-601.059 2639,-597.225 2639,-597.225 2639,-589.559 2639,-589.559 2639,-585.725 2642.83,-581.892 2646.67,-581.892 2646.67,-581.892 2946.33,-581.892 2946.33,-581.892 2950.17,-581.892 2954,-585.725 2954,-589.559 2954,-589.559 2954,-597.225 2954,-597.225 2954,-601.059 2950.17,-604.892 2946.33,-604.892"/>
<text text-anchor="middle" x="2796.5" y="-589.692" font-family="Arial" font-size="14.00" fill="#cfffac">containers/Insta/InstagramBackgroundColors.js</text>
</g>
<!-- containers/Insta/InstagramResponseConverter.js&#45;&gt;containers/Insta/InstagramBackgroundColors.js -->
<g id="edge69" class="edge"><title>containers/Insta/InstagramResponseConverter.js&#45;&gt;containers/Insta/InstagramBackgroundColors.js</title>
<path fill="none" stroke="#757575" d="M2332.3,-563.03C2423.37,-568.999 2536.77,-576.433 2628.57,-582.45"/>
<polygon fill="#757575" stroke="#757575" points="2628.59,-585.959 2638.8,-583.121 2629.05,-578.974 2628.59,-585.959"/>
</g>
<!-- containers/Insta/InstagramTextFormatter.js -->
<g id="node67" class="node"><title>containers/Insta/InstagramTextFormatter.js</title>
<path fill="none" stroke="#cfffac" d="M2931.33,-563.892C2931.33,-563.892 2661.67,-563.892 2661.67,-563.892 2657.83,-563.892 2654,-560.059 2654,-556.225 2654,-556.225 2654,-548.559 2654,-548.559 2654,-544.725 2657.83,-540.892 2661.67,-540.892 2661.67,-540.892 2931.33,-540.892 2931.33,-540.892 2935.17,-540.892 2939,-544.725 2939,-548.559 2939,-548.559 2939,-556.225 2939,-556.225 2939,-560.059 2935.17,-563.892 2931.33,-563.892"/>
<text text-anchor="middle" x="2796.5" y="-548.692" font-family="Arial" font-size="14.00" fill="#cfffac">containers/Insta/InstagramTextFormatter.js</text>
</g>
<!-- containers/Insta/InstagramResponseConverter.js&#45;&gt;containers/Insta/InstagramTextFormatter.js -->
<g id="edge70" class="edge"><title>containers/Insta/InstagramResponseConverter.js&#45;&gt;containers/Insta/InstagramTextFormatter.js</title>
<path fill="none" stroke="#757575" d="M2332.3,-552.392C2428.43,-552.392 2549.46,-552.392 2643.69,-552.392"/>
<polygon fill="#757575" stroke="#757575" points="2643.89,-555.892 2653.89,-552.392 2643.89,-548.892 2643.89,-555.892"/>
</g>
<!-- containers/Insta/InstagramTimeFormatter.js -->
<g id="node68" class="node"><title>containers/Insta/InstagramTimeFormatter.js</title>
<path fill="none" stroke="#cfffac" d="M2934.33,-522.892C2934.33,-522.892 2658.67,-522.892 2658.67,-522.892 2654.83,-522.892 2651,-519.059 2651,-515.225 2651,-515.225 2651,-507.559 2651,-507.559 2651,-503.725 2654.83,-499.892 2658.67,-499.892 2658.67,-499.892 2934.33,-499.892 2934.33,-499.892 2938.17,-499.892 2942,-503.725 2942,-507.559 2942,-507.559 2942,-515.225 2942,-515.225 2942,-519.059 2938.17,-522.892 2934.33,-522.892"/>
<text text-anchor="middle" x="2796.5" y="-507.692" font-family="Arial" font-size="14.00" fill="#cfffac">containers/Insta/InstagramTimeFormatter.js</text>
</g>
<!-- containers/Insta/InstagramResponseConverter.js&#45;&gt;containers/Insta/InstagramTimeFormatter.js -->
<g id="edge71" class="edge"><title>containers/Insta/InstagramResponseConverter.js&#45;&gt;containers/Insta/InstagramTimeFormatter.js</title>
<path fill="none" stroke="#757575" d="M2332.3,-541.753C2427.39,-535.521 2546.83,-527.692 2640.6,-521.545"/>
<polygon fill="#757575" stroke="#757575" points="2641,-525.027 2650.75,-520.88 2640.54,-518.042 2641,-525.027"/>
</g>
<!-- containers/Shop/Shop.test.js -->
<g id="node69" class="node"><title>containers/Shop/Shop.test.js</title>
<path fill="none" stroke="#c6c5fe" d="M866.833,-179.892C866.833,-179.892 684.167,-179.892 684.167,-179.892 680.333,-179.892 676.5,-176.059 676.5,-172.225 676.5,-172.225 676.5,-164.559 676.5,-164.559 676.5,-160.725 680.333,-156.892 684.167,-156.892 684.167,-156.892 866.833,-156.892 866.833,-156.892 870.667,-156.892 874.5,-160.725 874.5,-164.559 874.5,-164.559 874.5,-172.225 874.5,-172.225 874.5,-176.059 870.667,-179.892 866.833,-179.892"/>
<text text-anchor="middle" x="775.5" y="-164.692" font-family="Arial" font-size="14.00" fill="#c6c5fe">containers/Shop/Shop.test.js</text>
</g>
<!-- containers/Shop/Shop.test.js&#45;&gt;containers/Shop/Shop.js -->
<g id="edge72" class="edge"><title>containers/Shop/Shop.test.js&#45;&gt;containers/Shop/Shop.js</title>
<path fill="none" stroke="#757575" d="M874.897,-168.392C907.914,-168.392 944.646,-168.392 977.369,-168.392"/>
<polygon fill="#757575" stroke="#757575" points="977.387,-171.892 987.386,-168.392 977.386,-164.892 977.387,-171.892"/>
</g>
<!-- containers/Work/Work.test.js -->
<g id="node71" class="node"><title>containers/Work/Work.test.js</title>
<path fill="none" stroke="#c6c5fe" d="M866.833,-420.892C866.833,-420.892 684.167,-420.892 684.167,-420.892 680.333,-420.892 676.5,-417.059 676.5,-413.225 676.5,-413.225 676.5,-405.559 676.5,-405.559 676.5,-401.725 680.333,-397.892 684.167,-397.892 684.167,-397.892 866.833,-397.892 866.833,-397.892 870.667,-397.892 874.5,-401.725 874.5,-405.559 874.5,-405.559 874.5,-413.225 874.5,-413.225 874.5,-417.059 870.667,-420.892 866.833,-420.892"/>
<text text-anchor="middle" x="775.5" y="-405.692" font-family="Arial" font-size="14.00" fill="#c6c5fe">containers/Work/Work.test.js</text>
</g>
<!-- containers/Work/Work.test.js&#45;&gt;containers/Work/Work.js -->
<g id="edge76" class="edge"><title>containers/Work/Work.test.js&#45;&gt;containers/Work/Work.js</title>
<path fill="none" stroke="#757575" d="M874.897,-409.392C907.914,-409.392 944.646,-409.392 977.369,-409.392"/>
<polygon fill="#757575" stroke="#757575" points="977.387,-412.892 987.386,-409.392 977.386,-405.892 977.387,-412.892"/>
</g>
<!-- index.js -->
<g id="node72" class="node"><title>index.js</title>
<path fill="none" stroke="#c6c5fe" d="M325.833,-139.892C325.833,-139.892 276.167,-139.892 276.167,-139.892 272.333,-139.892 268.5,-136.059 268.5,-132.225 268.5,-132.225 268.5,-124.559 268.5,-124.559 268.5,-120.725 272.333,-116.892 276.167,-116.892 276.167,-116.892 325.833,-116.892 325.833,-116.892 329.667,-116.892 333.5,-120.725 333.5,-124.559 333.5,-124.559 333.5,-132.225 333.5,-132.225 333.5,-136.059 329.667,-139.892 325.833,-139.892"/>
<text text-anchor="middle" x="301" y="-124.692" font-family="Arial" font-size="14.00" fill="#c6c5fe">index.js</text>
</g>
<!-- index.js&#45;&gt;App.js -->
<g id="edge77" class="edge"><title>index.js&#45;&gt;App.js</title>
<path fill="none" stroke="#757575" d="M324.115,-140.024C376.878,-167.26 514.926,-235.5 638,-270.392 670.727,-279.67 709.104,-285.114 736.816,-288.124"/>
<polygon fill="#757575" stroke="#757575" points="736.575,-291.618 746.881,-289.162 737.293,-284.655 736.575,-291.618"/>
</g>
<!-- index.js&#45;&gt;index.css -->
<g id="edge78" class="edge"><title>index.js&#45;&gt;index.css</title>
<path fill="none" stroke="#757575" d="M333.62,-128.351C453.442,-128.195 880.04,-127.641 1024.09,-127.454"/>
<polygon fill="#757575" stroke="#757575" points="1024.37,-130.954 1034.36,-127.441 1024.36,-123.954 1024.37,-130.954"/>
</g>
<!-- registerServiceWorker.js -->
<g id="node73" class="node"><title>registerServiceWorker.js</title>
<path fill="none" stroke="#cfffac" d="M854.333,-99.8919C854.333,-99.8919 696.667,-99.8919 696.667,-99.8919 692.833,-99.8919 689,-96.0585 689,-92.2252 689,-92.2252 689,-84.5585 689,-84.5585 689,-80.7252 692.833,-76.8919 696.667,-76.8919 696.667,-76.8919 854.333,-76.8919 854.333,-76.8919 858.167,-76.8919 862,-80.7252 862,-84.5585 862,-84.5585 862,-92.2252 862,-92.2252 862,-96.0585 858.167,-99.8919 854.333,-99.8919"/>
<text text-anchor="middle" x="775.5" y="-84.6919" font-family="Arial" font-size="14.00" fill="#cfffac">registerServiceWorker.js</text>
</g>
<!-- index.js&#45;&gt;registerServiceWorker.js -->
<g id="edge79" class="edge"><title>index.js&#45;&gt;registerServiceWorker.js</title>
<path fill="none" stroke="#757575" d="M333.736,-125.705C403.191,-119.825 571.026,-105.617 678.39,-96.5281"/>
<polygon fill="#757575" stroke="#757575" points="678.917,-99.9962 688.586,-95.665 678.326,-93.0211 678.917,-99.9962"/>
</g>
<!-- setupTests.js -->
<g id="node74" class="node"><title>setupTests.js</title>
<path fill="none" stroke="#cfffac" d="M343.833,-384.892C343.833,-384.892 258.167,-384.892 258.167,-384.892 254.333,-384.892 250.5,-381.059 250.5,-377.225 250.5,-377.225 250.5,-369.559 250.5,-369.559 250.5,-365.725 254.333,-361.892 258.167,-361.892 258.167,-361.892 343.833,-361.892 343.833,-361.892 347.667,-361.892 351.5,-365.725 351.5,-369.559 351.5,-369.559 351.5,-377.225 351.5,-377.225 351.5,-381.059 347.667,-384.892 343.833,-384.892"/>
<text text-anchor="middle" x="301" y="-369.692" font-family="Arial" font-size="14.00" fill="#cfffac">setupTests.js</text>
</g>
</g>
</svg>
